<svg width="750.000000" height="250.000000" viewBox="0 0 750 250" fill="none" xmlns="http://www.w3.org/2000/svg" xmlns:xlink="http://www.w3.org/1999/xlink">
	<desc>
			Created with Pixso.
	</desc>
	<defs/>
	<rect id="Прямоугольник 9" width="750.000000" height="250.000000" fill="#000000" fill-opacity="1.000000"/>
	<path id="Newsly" d="M468.94 168L540.66 168L540.66 159.49L510.71 159.49L510.71 70.65L471.83 70.65L471.83 79.16L502.06 79.16L502.06 159.49L468.94 159.49L468.94 168ZM127.21 168L136 168L136 88.93L136.74 88.93L180.93 168L191.16 168L191.16 72.97L182.51 72.97L182.51 151.44L182.09 151.44L137.02 72.97L127.21 72.97L127.21 168ZM229.89 168L263.46 168L278.72 152.32L271.37 147.53L259.84 159.35L233.51 159.35L221.7 147.25L221.7 136.32L278.86 136.32L278.86 113.85L262.02 96.56L229.89 96.56L213.05 113.85L213.05 150.7L229.89 168ZM305.07 168L314.57 168L331.58 130.27L332.71 130.27L349.4 168L358.93 168L365.54 96.56L356.61 96.56L351.44 152.14L350.57 152.14L337.63 121.06L326.52 121.06L313.4 152.14L312.7 152.14L307.36 96.56L298.43 96.56L305.07 168ZM403.14 168L434.08 168L450.92 154.6L450.92 137.9L435.66 128.27L403.99 128.27L394.64 121.48L394.64 114L405.71 105.21L430.78 105.21L442.45 114L442.45 120.92L450.92 120.92L450.92 109.95L433.94 96.56L403 96.56L386.13 109.95L386.13 125.81L400.4 136.18L432.36 136.18L442.45 142.51L442.45 150.56L431.2 159.35L406.31 159.35L394.36 150.56L394.36 143.21L385.85 143.21L385.85 154.6L403.14 168ZM577.67 198.23L584.87 198.23L627.34 103.34L627.34 96.56L620.56 96.56L593.07 158.19L592.36 158.19L563.85 96.56L557.07 96.56L557.07 103.34L588.18 169.16L577.67 191.48L577.67 198.23ZM221.7 127.95L221.7 117.3L233.51 105.21L258.4 105.21L270.21 117.3L270.21 127.95L221.7 127.95Z" fill="#FFFFFF" fill-opacity="1.000000" fill-rule="evenodd"/>
</svg>
