<svg width="69" height="66" fill="none" xmlns="http://www.w3.org/2000/svg"><g filter="url(#a)"><path d="M34.53 11.22c-.27-.1-.56.06-.68.31a3 3 0 0 1-5.71-1c-.03-.29-.25-.54-.53-.53-.29 0-.5.26-.5.55a3 3 0 0 1-5.67 1.26c-.13-.26-.43-.4-.7-.29-.25.12-.35.43-.25.7a3 3 0 0 1-4.75 3.33c-.22-.18-.55-.2-.74 0-.2.2-.17.54.03.75a3 3 0 0 1-3.12 4.89c-.27-.09-.59.02-.69.28-.1.27.06.56.31.68a3 3 0 0 1-1 5.71c-.29.03-.54.25-.53.53 0 .29.26.5.55.5a3 3 0 0 1 1.26 5.67c-.26.13-.4.43-.29.7.12.25.43.35.7.25a3 3 0 0 1 3.33 4.75c-.18.22-.2.55 0 .74.2.2.54.17.75-.03a3 3 0 0 1 4.89 3.12c-.09.27.02.59.28.69.27.1.56-.05.68-.31a3 3 0 0 1 5.71 1c.03.29.25.54.53.53.29 0 .5-.26.5-.55a3 3 0 0 1 5.67-1.26c.13.26.43.4.7.29.25-.12.35-.43.25-.7a3 3 0 0 1 4.75-3.33c.22.18.55.2.74 0 .2-.2.17-.54-.03-.75a3 3 0 0 1 3.12-4.89c.27.09.59-.02.69-.28.1-.27-.05-.56-.31-.68a3 3 0 0 1 1-5.71c.29-.03.54-.25.53-.53 0-.29-.26-.5-.55-.5a3 3 0 0 1-1.26-5.67c.26-.13.4-.43.29-.7-.12-.25-.43-.35-.7-.25a3 3 0 0 1-3.33-4.75c.18-.22.2-.55 0-.74-.2-.2-.54-.17-.75.03a3 3 0 0 1-4.89-3.12c.09-.27-.02-.59-.28-.69Z" fill="url(#b)"/></g><g filter="url(#c)"><circle cx="28" cy="28" r="12" fill="url(#d)"/></g><g filter="url(#e)"><circle cx="28" cy="28" r="12" fill="url(#f)"/></g><g filter="url(#g)"><ellipse cx="28" cy="23" rx="7" ry="5" fill="url(#h)" style="mix-blend-mode:soft-light"/></g><g filter="url(#i)"><path d="M26.06 53.74c-.92-3.83-3.1-5.42-4.06-5.74h36c-1.55 1.75-3.48 4.2-3.48 5.74 0 1.53.38 4.14 1.16 5.26H24.9c.78-.16 2.1-1.43 1.16-5.26Z" fill="url(#j)"/></g><g filter="url(#k)"><path fill-rule="evenodd" clip-rule="evenodd" d="M58 31.51v-.01a12.5 12.5 0 0 0-24.24-4.3A8.03 8.03 0 0 0 24 35.06 7 7 0 0 0 25 49h30a9 9 0 0 0 3-17.49Z" fill="#64748B"/></g><g filter="url(#l)"><path fill-rule="evenodd" clip-rule="evenodd" d="M64 40a9 9 0 0 1-9 9H25a7 7 0 1 1 6.33-10h14.72A9 9 0 0 1 64 40Z" fill="#F1F5F9"/></g><g filter="url(#m)"><circle cx="25" cy="42" r="5" fill="url(#n)" style="mix-blend-mode:soft-light"/></g><g filter="url(#o)"><circle cx="32" cy="35" r="8" fill="#F1F5F9"/></g><g filter="url(#p)"><ellipse cx="32" cy="34" rx="6" ry="5" fill="url(#q)" style="mix-blend-mode:soft-light"/></g><g filter="url(#r)"><circle cx="56" cy="39" r="5" fill="url(#s)" style="mix-blend-mode:soft-light"/></g><g filter="url(#t)"><circle cx="45.5" cy="31.5" r="12.5" fill="#F1F5F9"/></g><g filter="url(#u)"><ellipse cx="45" cy="26" rx="7" ry="5" fill="url(#v)" style="mix-blend-mode:soft-light"/></g><g filter="url(#w)"><ellipse cx="41" cy="39.5" rx="9" ry="6.5" fill="url(#x)"/></g><g filter="url(#y)"><ellipse cx="41" cy="39.5" rx="7" ry="4.5" fill="url(#z)" style="mix-blend-mode:soft-light"/></g><path fill-rule="evenodd" clip-rule="evenodd" d="M58 31.51v-.01a12.5 12.5 0 0 0-24.24-4.3A8.03 8.03 0 0 0 24 35.06 7 7 0 0 0 25 49h30a9 9 0 0 0 3-17.49Z" fill="#93C5FD" style="mix-blend-mode:color"/><path fill-rule="evenodd" clip-rule="evenodd" d="M58 31.51v-.01a12.5 12.5 0 0 0-24.24-4.3A8.03 8.03 0 0 0 24 35.06 7 7 0 0 0 25 49h30a9 9 0 0 0 3-17.49Z" fill="#93C5FD" fill-opacity=".2" style="mix-blend-mode:multiply"/><g filter="url(#A)"><path d="m33.76 58.94 3.61-5.91c.12-.2.42-.08.37.14l-1.5 6.77a1.35 1.35 0 1 1-2.48-1Z" fill="#3B82F6"/></g><path d="M35.82 60.1a1 1 0 1 1-1.84-.8c.22-.5 2.51-5.02 3.02-4.8.5.22-.96 5.08-1.18 5.6Z" fill="url(#B)"/><g filter="url(#C)"><path d="m40.76 58.94 3.61-5.91c.12-.2.42-.08.37.14l-1.5 6.77a1.35 1.35 0 1 1-2.48-1Z" fill="#3B82F6"/></g><path d="M42.82 60.1a1 1 0 1 1-1.84-.8c.22-.5 2.51-5.02 3.02-4.8.5.22-.96 5.08-1.18 5.6Z" fill="url(#D)"/><g style="mix-blend-mode:color" filter="url(#E)"><path fill-rule="evenodd" clip-rule="evenodd" d="M42.5 19.5c-1.37.34-4.6 2.86-5.5 3.99a15.22 15.22 0 0 0-2.5 5.39 7.35 7.35 0 0 0-6.2 1.1 6.35 6.35 0 0 0-2.8 6c-1.66.34-3.2.46-4.5 1.5-1.85 1.48-3 3.1-3 4 0-1.1.53-3.65 2.67-5.37 1.02-1 1.95-1.26 3.33-1.62a8.56 8.56 0 0 1 3.5-6.5c1.61-1.29 4.03-1.4 6-1 .33-.92 1.25-2.62 2.61-4.32 1.5-1.87 4.1-2.6 6.39-3.17Z" fill="#FC0"/></g><defs><filter id="a" x="0" y="0" width="56" height="56" filterUnits="userSpaceOnUse" color-interpolation-filters="sRGB"><feFlood flood-opacity="0" result="BackgroundImageFix"/><feColorMatrix in="SourceAlpha" values="0 0 0 0 0 0 0 0 0 0 0 0 0 0 0 0 0 0 127 0" result="hardAlpha"/><feOffset/><feGaussianBlur stdDeviation="5"/><feComposite in2="hardAlpha" operator="out"/><feColorMatrix values="0 0 0 0 0.980392 0 0 0 0 0.8 0 0 0 0 0.0823529 0 0 0 0.7 0"/><feBlend in2="BackgroundImageFix" result="effect1_dropShadow_4_34477"/><feBlend in="SourceGraphic" in2="effect1_dropShadow_4_34477" result="shape"/></filter><filter id="c" x="16" y="15" width="24" height="25" filterUnits="userSpaceOnUse" color-interpolation-filters="sRGB"><feFlood flood-opacity="0" result="BackgroundImageFix"/><feBlend in="SourceGraphic" in2="BackgroundImageFix" result="shape"/><feColorMatrix in="SourceAlpha" values="0 0 0 0 0 0 0 0 0 0 0 0 0 0 0 0 0 0 127 0" result="hardAlpha"/><feOffset dy="-1"/><feGaussianBlur stdDeviation="1"/><feComposite in2="hardAlpha" operator="arithmetic" k2="-1" k3="1"/><feColorMatrix values="0 0 0 0 0.992157 0 0 0 0 0.878431 0 0 0 0 0.278431 0 0 0 1 0"/><feBlend in2="shape" result="effect1_innerShadow_4_34477"/></filter><filter id="e" x="16" y="15" width="24" height="26" filterUnits="userSpaceOnUse" color-interpolation-filters="sRGB"><feFlood flood-opacity="0" result="BackgroundImageFix"/><feBlend in="SourceGraphic" in2="BackgroundImageFix" result="shape"/><feColorMatrix in="SourceAlpha" values="0 0 0 0 0 0 0 0 0 0 0 0 0 0 0 0 0 0 127 0" result="hardAlpha"/><feOffset dy="-1"/><feGaussianBlur stdDeviation="1.5"/><feComposite in2="hardAlpha" operator="arithmetic" k2="-1" k3="1"/><feColorMatrix values="0 0 0 0 0.992157 0 0 0 0 0.878431 0 0 0 0 0.278431 0 0 0 1 0"/><feBlend in2="shape" result="effect1_innerShadow_4_34477"/><feColorMatrix in="SourceAlpha" values="0 0 0 0 0 0 0 0 0 0 0 0 0 0 0 0 0 0 127 0" result="hardAlpha"/><feOffset dy="1"/><feGaussianBlur stdDeviation=".5"/><feComposite in2="hardAlpha" operator="arithmetic" k2="-1" k3="1"/><feColorMatrix values="0 0 0 0 0.996078 0 0 0 0 0.941176 0 0 0 0 0.541176 0 0 0 1 0"/><feBlend in2="effect1_innerShadow_4_34477" result="effect2_innerShadow_4_34477"/></filter><filter id="g" x="19" y="16" width="18" height="14" filterUnits="userSpaceOnUse" color-interpolation-filters="sRGB"><feFlood flood-opacity="0" result="BackgroundImageFix"/><feBlend in="SourceGraphic" in2="BackgroundImageFix" result="shape"/><feGaussianBlur stdDeviation="1" result="effect1_foregroundBlur_4_34477"/></filter><filter id="i" x="20" y="46" width="40" height="15" filterUnits="userSpaceOnUse" color-interpolation-filters="sRGB"><feFlood flood-opacity="0" result="BackgroundImageFix"/><feBlend in="SourceGraphic" in2="BackgroundImageFix" result="shape"/><feGaussianBlur stdDeviation="1" result="effect1_foregroundBlur_4_34477"/></filter><filter id="k" x="14" y="17" width="54" height="38" filterUnits="userSpaceOnUse" color-interpolation-filters="sRGB"><feFlood flood-opacity="0" result="BackgroundImageFix"/><feColorMatrix in="SourceAlpha" values="0 0 0 0 0 0 0 0 0 0 0 0 0 0 0 0 0 0 127 0" result="hardAlpha"/><feOffset dy="2"/><feGaussianBlur stdDeviation="2"/><feComposite in2="hardAlpha" operator="out"/><feColorMatrix values="0 0 0 0 0.278431 0 0 0 0 0.333333 0 0 0 0 0.411765 0 0 0 0.4 0"/><feBlend in2="BackgroundImageFix" result="effect1_dropShadow_4_34477"/><feBlend in="SourceGraphic" in2="effect1_dropShadow_4_34477" result="shape"/></filter><filter id="l" x="18" y="29" width="46" height="22" filterUnits="userSpaceOnUse" color-interpolation-filters="sRGB"><feFlood flood-opacity="0" result="BackgroundImageFix"/><feBlend in="SourceGraphic" in2="BackgroundImageFix" result="shape"/><feColorMatrix in="SourceAlpha" values="0 0 0 0 0 0 0 0 0 0 0 0 0 0 0 0 0 0 127 0" result="hardAlpha"/><feOffset dy="2"/><feGaussianBlur stdDeviation="1"/><feComposite in2="hardAlpha" operator="arithmetic" k2="-1" k3="1"/><feColorMatrix values="0 0 0 0 0.796078 0 0 0 0 0.835294 0 0 0 0 0.882353 0 0 0 1 0"/><feBlend in2="shape" result="effect1_innerShadow_4_34477"/><feColorMatrix in="SourceAlpha" values="0 0 0 0 0 0 0 0 0 0 0 0 0 0 0 0 0 0 127 0" result="hardAlpha"/><feOffset dy="-2"/><feGaussianBlur stdDeviation="1"/><feComposite in2="hardAlpha" operator="arithmetic" k2="-1" k3="1"/><feColorMatrix values="0 0 0 0 0.796078 0 0 0 0 0.835294 0 0 0 0 0.882353 0 0 0 0.6 0"/><feBlend in2="effect1_innerShadow_4_34477" result="effect2_innerShadow_4_34477"/></filter><filter id="m" x="18" y="35" width="14" height="14" filterUnits="userSpaceOnUse" color-interpolation-filters="sRGB"><feFlood flood-opacity="0" result="BackgroundImageFix"/><feBlend in="SourceGraphic" in2="BackgroundImageFix" result="shape"/><feGaussianBlur stdDeviation="1" result="effect1_foregroundBlur_4_34477"/></filter><filter id="o" x="24" y="27" width="16" height="18" filterUnits="userSpaceOnUse" color-interpolation-filters="sRGB"><feFlood flood-opacity="0" result="BackgroundImageFix"/><feBlend in="SourceGraphic" in2="BackgroundImageFix" result="shape"/><feColorMatrix in="SourceAlpha" values="0 0 0 0 0 0 0 0 0 0 0 0 0 0 0 0 0 0 127 0" result="hardAlpha"/><feOffset dy="2"/><feGaussianBlur stdDeviation="1"/><feComposite in2="hardAlpha" operator="arithmetic" k2="-1" k3="1"/><feColorMatrix values="0 0 0 0 0.796078 0 0 0 0 0.835294 0 0 0 0 0.882353 0 0 0 1 0"/><feBlend in2="shape" result="effect1_innerShadow_4_34477"/></filter><filter id="p" x="24" y="27" width="16" height="14" filterUnits="userSpaceOnUse" color-interpolation-filters="sRGB"><feFlood flood-opacity="0" result="BackgroundImageFix"/><feBlend in="SourceGraphic" in2="BackgroundImageFix" result="shape"/><feGaussianBlur stdDeviation="1" result="effect1_foregroundBlur_4_34477"/></filter><filter id="r" x="49" y="32" width="14" height="14" filterUnits="userSpaceOnUse" color-interpolation-filters="sRGB"><feFlood flood-opacity="0" result="BackgroundImageFix"/><feBlend in="SourceGraphic" in2="BackgroundImageFix" result="shape"/><feGaussianBlur stdDeviation="1" result="effect1_foregroundBlur_4_34477"/></filter><filter id="t" x="33" y="19" width="25" height="27" filterUnits="userSpaceOnUse" color-interpolation-filters="sRGB"><feFlood flood-opacity="0" result="BackgroundImageFix"/><feBlend in="SourceGraphic" in2="BackgroundImageFix" result="shape"/><feColorMatrix in="SourceAlpha" values="0 0 0 0 0 0 0 0 0 0 0 0 0 0 0 0 0 0 127 0" result="hardAlpha"/><feOffset dy="2"/><feGaussianBlur stdDeviation="1"/><feComposite in2="hardAlpha" operator="arithmetic" k2="-1" k3="1"/><feColorMatrix values="0 0 0 0 0.796078 0 0 0 0 0.835294 0 0 0 0 0.882353 0 0 0 1 0"/><feBlend in2="shape" result="effect1_innerShadow_4_34477"/></filter><filter id="u" x="36" y="19" width="18" height="14" filterUnits="userSpaceOnUse" color-interpolation-filters="sRGB"><feFlood flood-opacity="0" result="BackgroundImageFix"/><feBlend in="SourceGraphic" in2="BackgroundImageFix" result="shape"/><feGaussianBlur stdDeviation="1" result="effect1_foregroundBlur_4_34477"/></filter><filter id="w" x="32" y="33" width="18" height="15" filterUnits="userSpaceOnUse" color-interpolation-filters="sRGB"><feFlood flood-opacity="0" result="BackgroundImageFix"/><feBlend in="SourceGraphic" in2="BackgroundImageFix" result="shape"/><feColorMatrix in="SourceAlpha" values="0 0 0 0 0 0 0 0 0 0 0 0 0 0 0 0 0 0 127 0" result="hardAlpha"/><feOffset dy="2"/><feGaussianBlur stdDeviation="1"/><feComposite in2="hardAlpha" operator="arithmetic" k2="-1" k3="1"/><feColorMatrix values="0 0 0 0 0.796078 0 0 0 0 0.835294 0 0 0 0 0.882353 0 0 0 0.6 0"/><feBlend in2="shape" result="effect1_innerShadow_4_34477"/></filter><filter id="y" x="32" y="33" width="18" height="13" filterUnits="userSpaceOnUse" color-interpolation-filters="sRGB"><feFlood flood-opacity="0" result="BackgroundImageFix"/><feBlend in="SourceGraphic" in2="BackgroundImageFix" result="shape"/><feGaussianBlur stdDeviation="1" result="effect1_foregroundBlur_4_34477"/></filter><filter id="A" x="33.56" y="52.43" width="4.19" height="8.57" filterUnits="userSpaceOnUse" color-interpolation-filters="sRGB"><feFlood flood-opacity="0" result="BackgroundImageFix"/><feBlend in="SourceGraphic" in2="BackgroundImageFix" result="shape"/><feColorMatrix in="SourceAlpha" values="0 0 0 0 0 0 0 0 0 0 0 0 0 0 0 0 0 0 127 0" result="hardAlpha"/><feOffset dy="-1"/><feComposite in2="hardAlpha" operator="arithmetic" k2="-1" k3="1"/><feColorMatrix values="0 0 0 0 0.231373 0 0 0 0 0.509804 0 0 0 0 0.964706 0 0 0 1 0"/><feBlend in2="shape" result="effect1_innerShadow_4_34477"/><feColorMatrix in="SourceAlpha" values="0 0 0 0 0 0 0 0 0 0 0 0 0 0 0 0 0 0 127 0" result="hardAlpha"/><feOffset dy="-.5"/><feGaussianBlur stdDeviation=".25"/><feComposite in2="hardAlpha" operator="arithmetic" k2="-1" k3="1"/><feColorMatrix values="0 0 0 0 0.113438 0 0 0 0 0.33625 0 0 0 0 0.825 0 0 0 1 0"/><feBlend in2="effect1_innerShadow_4_34477" result="effect2_innerShadow_4_34477"/></filter><filter id="C" x="40.56" y="52.43" width="4.19" height="8.57" filterUnits="userSpaceOnUse" color-interpolation-filters="sRGB"><feFlood flood-opacity="0" result="BackgroundImageFix"/><feBlend in="SourceGraphic" in2="BackgroundImageFix" result="shape"/><feColorMatrix in="SourceAlpha" values="0 0 0 0 0 0 0 0 0 0 0 0 0 0 0 0 0 0 127 0" result="hardAlpha"/><feOffset dy="-1"/><feComposite in2="hardAlpha" operator="arithmetic" k2="-1" k3="1"/><feColorMatrix values="0 0 0 0 0.231373 0 0 0 0 0.509804 0 0 0 0 0.964706 0 0 0 1 0"/><feBlend in2="shape" result="effect1_innerShadow_4_34477"/><feColorMatrix in="SourceAlpha" values="0 0 0 0 0 0 0 0 0 0 0 0 0 0 0 0 0 0 127 0" result="hardAlpha"/><feOffset dy="-.5"/><feGaussianBlur stdDeviation=".25"/><feComposite in2="hardAlpha" operator="arithmetic" k2="-1" k3="1"/><feColorMatrix values="0 0 0 0 0.113438 0 0 0 0 0.33625 0 0 0 0 0.825 0 0 0 1 0"/><feBlend in2="effect1_innerShadow_4_34477" result="effect2_innerShadow_4_34477"/></filter><filter id="E" x="16" y="17.5" width="28.5" height="25.99" filterUnits="userSpaceOnUse" color-interpolation-filters="sRGB"><feFlood flood-opacity="0" result="BackgroundImageFix"/><feBlend in="SourceGraphic" in2="BackgroundImageFix" result="shape"/><feGaussianBlur stdDeviation="1" result="effect1_foregroundBlur_4_34477"/></filter><linearGradient id="d" x1="28" y1="16" x2="28" y2="40" gradientUnits="userSpaceOnUse"><stop stop-color="#FEF08A"/><stop offset="1" stop-color="#F59E0B"/></linearGradient><linearGradient id="f" x1="28" y1="16" x2="28" y2="40" gradientUnits="userSpaceOnUse"><stop stop-color="#FFF28F"/><stop offset="1" stop-color="#F79B00"/></linearGradient><linearGradient id="h" x1="28" y1="18" x2="28" y2="28" gradientUnits="userSpaceOnUse"><stop stop-color="#FEF9C3"/><stop offset="1" stop-color="#FEF9C3" stop-opacity="0"/><stop offset="1" stop-color="#FEF9C3" stop-opacity=".2"/></linearGradient><linearGradient id="j" x1="40" y1="48" x2="40" y2="59" gradientUnits="userSpaceOnUse"><stop stop-color="#BAE6FD"/><stop offset="1" stop-color="#BAE6FD" stop-opacity="0"/></linearGradient><linearGradient id="n" x1="25" y1="37" x2="25" y2="47" gradientUnits="userSpaceOnUse"><stop stop-color="#fff"/><stop offset="1" stop-color="#F3F3F3" stop-opacity=".2"/></linearGradient><linearGradient id="q" x1="32" y1="29" x2="32" y2="39" gradientUnits="userSpaceOnUse"><stop stop-color="#fff"/><stop offset="1" stop-color="#F3F3F3" stop-opacity=".2"/></linearGradient><linearGradient id="s" x1="56" y1="34" x2="56" y2="44" gradientUnits="userSpaceOnUse"><stop stop-color="#fff"/><stop offset="1" stop-color="#F3F3F3" stop-opacity=".2"/></linearGradient><linearGradient id="v" x1="45" y1="21" x2="45" y2="31" gradientUnits="userSpaceOnUse"><stop stop-color="#fff"/><stop offset="1" stop-color="#F3F3F3" stop-opacity=".2"/></linearGradient><linearGradient id="x" x1="41" y1="33" x2="41" y2="46" gradientUnits="userSpaceOnUse"><stop stop-color="#F1F5F9"/><stop offset=".65" stop-color="#F1F5F9" stop-opacity="0"/></linearGradient><linearGradient id="z" x1="41" y1="35" x2="41" y2="44" gradientUnits="userSpaceOnUse"><stop stop-color="#fff"/><stop offset="1" stop-color="#F3F3F3" stop-opacity=".2"/></linearGradient><radialGradient id="b" cx="0" cy="0" r="1" gradientUnits="userSpaceOnUse" gradientTransform="matrix(0 30 -29.9999 0 28 16)"><stop stop-color="#FACC15"/><stop offset="1" stop-color="#D97706"/></radialGradient><radialGradient id="B" cx="0" cy="0" r="1" gradientUnits="userSpaceOnUse" gradientTransform="matrix(2 -5 5 2 34.5 60.5)"><stop stop-color="#74D5FF"/><stop offset=".38" stop-color="#74D5FF" stop-opacity="0"/></radialGradient><radialGradient id="D" cx="0" cy="0" r="1" gradientUnits="userSpaceOnUse" gradientTransform="matrix(2 -5 5 2 41.5 60.5)"><stop stop-color="#74D5FF"/><stop offset=".38" stop-color="#74D5FF" stop-opacity="0"/></radialGradient></defs></svg>