<svg width="64" height="64" fill="none" xmlns="http://www.w3.org/2000/svg"><g clip-path="url(#a)"><g filter="url(#b)"><path d="M29.53 9.22c-.27-.1-.56.06-.68.31a3 3 0 0 1-5.71-1c-.03-.29-.25-.54-.53-.53-.29 0-.5.26-.5.55a3 3 0 0 1-5.67 1.26c-.13-.26-.43-.4-.7-.29-.25.12-.35.43-.25.7a3 3 0 0 1-4.75 3.33c-.22-.18-.55-.2-.74 0-.2.2-.17.54.03.75a3 3 0 0 1-3.12 4.89c-.27-.09-.59.02-.69.28-.1.27.06.56.31.68a3 3 0 0 1-1 5.71c-.29.03-.54.25-.53.53 0 .29.26.5.55.5a3 3 0 0 1 1.26 5.67c-.26.13-.4.43-.29.7.12.25.43.35.7.25a3 3 0 0 1 3.33 4.75c-.18.22-.2.55 0 .74.2.2.54.17.75-.03a3 3 0 0 1 4.89 3.12c-.09.27.02.59.28.69.27.1.56-.05.68-.31a3 3 0 0 1 5.71 1c.03.29.25.54.53.53.29 0 .5-.26.5-.55a3 3 0 0 1 5.67-1.26c.13.26.43.4.7.29.25-.12.35-.43.25-.7a3 3 0 0 1 4.75-3.33c.22.18.55.2.74 0 .2-.2.17-.54-.03-.75a3 3 0 0 1 3.12-4.89c.27.09.59-.02.69-.28.1-.27-.05-.56-.31-.68a3 3 0 0 1 1-5.71c.29-.03.54-.25.53-.53 0-.29-.26-.5-.55-.5a3 3 0 0 1-1.26-5.67c.26-.13.4-.43.29-.7-.12-.25-.43-.35-.7-.25a3 3 0 0 1-3.33-4.75c.18-.22.2-.55 0-.74-.2-.2-.54-.17-.75.03a3 3 0 0 1-4.89-3.12c.09-.27-.02-.59-.28-.69Z" fill="url(#c)"/></g><g filter="url(#d)"><circle cx="23" cy="26" r="12" fill="url(#e)"/></g><g filter="url(#f)"><circle cx="23" cy="26" r="12" fill="url(#g)"/></g><g filter="url(#h)"><ellipse cx="23" cy="21" rx="7" ry="5" fill="url(#i)" style="mix-blend-mode:soft-light"/></g><g filter="url(#j)"><path fill-rule="evenodd" clip-rule="evenodd" d="M53 29.51v-.01a12.5 12.5 0 0 0-24.24-4.3A8.03 8.03 0 0 0 19 33.06 7 7 0 0 0 20 47h30a9 9 0 0 0 3-17.49Z" fill="#64748B"/></g><g filter="url(#k)"><path fill-rule="evenodd" clip-rule="evenodd" d="M59 38a9 9 0 0 1-9 9H20a7 7 0 1 1 6.33-10h14.72A9 9 0 0 1 59 38Z" fill="#F1F5F9"/></g><g filter="url(#l)"><circle cx="20" cy="40" r="5" fill="url(#m)" style="mix-blend-mode:soft-light"/></g><g filter="url(#n)"><circle cx="27" cy="33" r="8" fill="#F1F5F9"/></g><g filter="url(#o)"><ellipse cx="27" cy="32" rx="6" ry="5" fill="url(#p)" style="mix-blend-mode:soft-light"/></g><g filter="url(#q)"><circle cx="51" cy="37" r="5" fill="url(#r)" style="mix-blend-mode:soft-light"/></g><g filter="url(#s)"><circle cx="40.5" cy="29.5" r="12.5" fill="#F1F5F9"/></g><g filter="url(#t)"><ellipse cx="40" cy="24" rx="7" ry="5" fill="url(#u)" style="mix-blend-mode:soft-light"/></g><g filter="url(#v)"><ellipse cx="36" cy="37.5" rx="9" ry="6.5" fill="url(#w)"/></g><g filter="url(#x)"><ellipse cx="36" cy="37.5" rx="7" ry="4.5" fill="url(#y)" style="mix-blend-mode:soft-light"/></g><g style="mix-blend-mode:color" filter="url(#z)"><path fill-rule="evenodd" clip-rule="evenodd" d="M37.5 17.5c-1.37.34-4.6 2.86-5.5 3.99a15.22 15.22 0 0 0-2.5 5.39 7.35 7.35 0 0 0-6.2 1.1 6.35 6.35 0 0 0-2.8 6c-1.66.34-3.2.46-4.5 1.5-1.85 1.48-3 3.1-3 4 0-1.1.53-3.65 2.67-5.37 1.02-1 1.96-1.26 3.33-1.62a8.56 8.56 0 0 1 3.5-6.5c1.61-1.29 4.03-1.4 6-1 .33-.92 1.25-2.62 2.61-4.32 1.5-1.87 4.1-2.6 6.39-3.17Z" fill="#FC0"/></g></g><defs><filter id="b" x="-5" y="-2" width="56" height="56" filterUnits="userSpaceOnUse" color-interpolation-filters="sRGB"><feFlood flood-opacity="0" result="BackgroundImageFix"/><feColorMatrix in="SourceAlpha" values="0 0 0 0 0 0 0 0 0 0 0 0 0 0 0 0 0 0 127 0" result="hardAlpha"/><feOffset/><feGaussianBlur stdDeviation="5"/><feComposite in2="hardAlpha" operator="out"/><feColorMatrix values="0 0 0 0 0.980392 0 0 0 0 0.8 0 0 0 0 0.0823529 0 0 0 0.7 0"/><feBlend in2="BackgroundImageFix" result="effect1_dropShadow_4_34460"/><feBlend in="SourceGraphic" in2="effect1_dropShadow_4_34460" result="shape"/></filter><filter id="d" x="11" y="13" width="24" height="25" filterUnits="userSpaceOnUse" color-interpolation-filters="sRGB"><feFlood flood-opacity="0" result="BackgroundImageFix"/><feBlend in="SourceGraphic" in2="BackgroundImageFix" result="shape"/><feColorMatrix in="SourceAlpha" values="0 0 0 0 0 0 0 0 0 0 0 0 0 0 0 0 0 0 127 0" result="hardAlpha"/><feOffset dy="-1"/><feGaussianBlur stdDeviation="1"/><feComposite in2="hardAlpha" operator="arithmetic" k2="-1" k3="1"/><feColorMatrix values="0 0 0 0 0.992157 0 0 0 0 0.878431 0 0 0 0 0.278431 0 0 0 1 0"/><feBlend in2="shape" result="effect1_innerShadow_4_34460"/></filter><filter id="f" x="11" y="13" width="24" height="26" filterUnits="userSpaceOnUse" color-interpolation-filters="sRGB"><feFlood flood-opacity="0" result="BackgroundImageFix"/><feBlend in="SourceGraphic" in2="BackgroundImageFix" result="shape"/><feColorMatrix in="SourceAlpha" values="0 0 0 0 0 0 0 0 0 0 0 0 0 0 0 0 0 0 127 0" result="hardAlpha"/><feOffset dy="-1"/><feGaussianBlur stdDeviation="1.5"/><feComposite in2="hardAlpha" operator="arithmetic" k2="-1" k3="1"/><feColorMatrix values="0 0 0 0 0.992157 0 0 0 0 0.878431 0 0 0 0 0.278431 0 0 0 1 0"/><feBlend in2="shape" result="effect1_innerShadow_4_34460"/><feColorMatrix in="SourceAlpha" values="0 0 0 0 0 0 0 0 0 0 0 0 0 0 0 0 0 0 127 0" result="hardAlpha"/><feOffset dy="1"/><feGaussianBlur stdDeviation=".5"/><feComposite in2="hardAlpha" operator="arithmetic" k2="-1" k3="1"/><feColorMatrix values="0 0 0 0 0.996078 0 0 0 0 0.941176 0 0 0 0 0.541176 0 0 0 1 0"/><feBlend in2="effect1_innerShadow_4_34460" result="effect2_innerShadow_4_34460"/></filter><filter id="h" x="14" y="14" width="18" height="14" filterUnits="userSpaceOnUse" color-interpolation-filters="sRGB"><feFlood flood-opacity="0" result="BackgroundImageFix"/><feBlend in="SourceGraphic" in2="BackgroundImageFix" result="shape"/><feGaussianBlur stdDeviation="1" result="effect1_foregroundBlur_4_34460"/></filter><filter id="j" x="9" y="15" width="54" height="38" filterUnits="userSpaceOnUse" color-interpolation-filters="sRGB"><feFlood flood-opacity="0" result="BackgroundImageFix"/><feColorMatrix in="SourceAlpha" values="0 0 0 0 0 0 0 0 0 0 0 0 0 0 0 0 0 0 127 0" result="hardAlpha"/><feOffset dy="2"/><feGaussianBlur stdDeviation="2"/><feComposite in2="hardAlpha" operator="out"/><feColorMatrix values="0 0 0 0 0.278431 0 0 0 0 0.333333 0 0 0 0 0.411765 0 0 0 0.4 0"/><feBlend in2="BackgroundImageFix" result="effect1_dropShadow_4_34460"/><feBlend in="SourceGraphic" in2="effect1_dropShadow_4_34460" result="shape"/></filter><filter id="k" x="13" y="27" width="46" height="22" filterUnits="userSpaceOnUse" color-interpolation-filters="sRGB"><feFlood flood-opacity="0" result="BackgroundImageFix"/><feBlend in="SourceGraphic" in2="BackgroundImageFix" result="shape"/><feColorMatrix in="SourceAlpha" values="0 0 0 0 0 0 0 0 0 0 0 0 0 0 0 0 0 0 127 0" result="hardAlpha"/><feOffset dy="2"/><feGaussianBlur stdDeviation="1"/><feComposite in2="hardAlpha" operator="arithmetic" k2="-1" k3="1"/><feColorMatrix values="0 0 0 0 0.796078 0 0 0 0 0.835294 0 0 0 0 0.882353 0 0 0 1 0"/><feBlend in2="shape" result="effect1_innerShadow_4_34460"/><feColorMatrix in="SourceAlpha" values="0 0 0 0 0 0 0 0 0 0 0 0 0 0 0 0 0 0 127 0" result="hardAlpha"/><feOffset dy="-2"/><feGaussianBlur stdDeviation="1"/><feComposite in2="hardAlpha" operator="arithmetic" k2="-1" k3="1"/><feColorMatrix values="0 0 0 0 0.796078 0 0 0 0 0.835294 0 0 0 0 0.882353 0 0 0 0.6 0"/><feBlend in2="effect1_innerShadow_4_34460" result="effect2_innerShadow_4_34460"/></filter><filter id="l" x="13" y="33" width="14" height="14" filterUnits="userSpaceOnUse" color-interpolation-filters="sRGB"><feFlood flood-opacity="0" result="BackgroundImageFix"/><feBlend in="SourceGraphic" in2="BackgroundImageFix" result="shape"/><feGaussianBlur stdDeviation="1" result="effect1_foregroundBlur_4_34460"/></filter><filter id="n" x="19" y="25" width="16" height="18" filterUnits="userSpaceOnUse" color-interpolation-filters="sRGB"><feFlood flood-opacity="0" result="BackgroundImageFix"/><feBlend in="SourceGraphic" in2="BackgroundImageFix" result="shape"/><feColorMatrix in="SourceAlpha" values="0 0 0 0 0 0 0 0 0 0 0 0 0 0 0 0 0 0 127 0" result="hardAlpha"/><feOffset dy="2"/><feGaussianBlur stdDeviation="1"/><feComposite in2="hardAlpha" operator="arithmetic" k2="-1" k3="1"/><feColorMatrix values="0 0 0 0 0.796078 0 0 0 0 0.835294 0 0 0 0 0.882353 0 0 0 1 0"/><feBlend in2="shape" result="effect1_innerShadow_4_34460"/></filter><filter id="o" x="19" y="25" width="16" height="14" filterUnits="userSpaceOnUse" color-interpolation-filters="sRGB"><feFlood flood-opacity="0" result="BackgroundImageFix"/><feBlend in="SourceGraphic" in2="BackgroundImageFix" result="shape"/><feGaussianBlur stdDeviation="1" result="effect1_foregroundBlur_4_34460"/></filter><filter id="q" x="44" y="30" width="14" height="14" filterUnits="userSpaceOnUse" color-interpolation-filters="sRGB"><feFlood flood-opacity="0" result="BackgroundImageFix"/><feBlend in="SourceGraphic" in2="BackgroundImageFix" result="shape"/><feGaussianBlur stdDeviation="1" result="effect1_foregroundBlur_4_34460"/></filter><filter id="s" x="28" y="17" width="25" height="27" filterUnits="userSpaceOnUse" color-interpolation-filters="sRGB"><feFlood flood-opacity="0" result="BackgroundImageFix"/><feBlend in="SourceGraphic" in2="BackgroundImageFix" result="shape"/><feColorMatrix in="SourceAlpha" values="0 0 0 0 0 0 0 0 0 0 0 0 0 0 0 0 0 0 127 0" result="hardAlpha"/><feOffset dy="2"/><feGaussianBlur stdDeviation="1"/><feComposite in2="hardAlpha" operator="arithmetic" k2="-1" k3="1"/><feColorMatrix values="0 0 0 0 0.796078 0 0 0 0 0.835294 0 0 0 0 0.882353 0 0 0 1 0"/><feBlend in2="shape" result="effect1_innerShadow_4_34460"/></filter><filter id="t" x="31" y="17" width="18" height="14" filterUnits="userSpaceOnUse" color-interpolation-filters="sRGB"><feFlood flood-opacity="0" result="BackgroundImageFix"/><feBlend in="SourceGraphic" in2="BackgroundImageFix" result="shape"/><feGaussianBlur stdDeviation="1" result="effect1_foregroundBlur_4_34460"/></filter><filter id="v" x="27" y="31" width="18" height="15" filterUnits="userSpaceOnUse" color-interpolation-filters="sRGB"><feFlood flood-opacity="0" result="BackgroundImageFix"/><feBlend in="SourceGraphic" in2="BackgroundImageFix" result="shape"/><feColorMatrix in="SourceAlpha" values="0 0 0 0 0 0 0 0 0 0 0 0 0 0 0 0 0 0 127 0" result="hardAlpha"/><feOffset dy="2"/><feGaussianBlur stdDeviation="1"/><feComposite in2="hardAlpha" operator="arithmetic" k2="-1" k3="1"/><feColorMatrix values="0 0 0 0 0.796078 0 0 0 0 0.835294 0 0 0 0 0.882353 0 0 0 0.6 0"/><feBlend in2="shape" result="effect1_innerShadow_4_34460"/></filter><filter id="x" x="27" y="31" width="18" height="13" filterUnits="userSpaceOnUse" color-interpolation-filters="sRGB"><feFlood flood-opacity="0" result="BackgroundImageFix"/><feBlend in="SourceGraphic" in2="BackgroundImageFix" result="shape"/><feGaussianBlur stdDeviation="1" result="effect1_foregroundBlur_4_34460"/></filter><filter id="z" x="11" y="15.5" width="28.5" height="25.99" filterUnits="userSpaceOnUse" color-interpolation-filters="sRGB"><feFlood flood-opacity="0" result="BackgroundImageFix"/><feBlend in="SourceGraphic" in2="BackgroundImageFix" result="shape"/><feGaussianBlur stdDeviation="1" result="effect1_foregroundBlur_4_34460"/></filter><linearGradient id="e" x1="23" y1="14" x2="23" y2="38" gradientUnits="userSpaceOnUse"><stop stop-color="#FEF08A"/><stop offset="1" stop-color="#F59E0B"/></linearGradient><linearGradient id="g" x1="23" y1="14" x2="23" y2="38" gradientUnits="userSpaceOnUse"><stop stop-color="#FFF28F"/><stop offset="1" stop-color="#F79B00"/></linearGradient><linearGradient id="i" x1="23" y1="16" x2="23" y2="26" gradientUnits="userSpaceOnUse"><stop stop-color="#FEF9C3"/><stop offset="1" stop-color="#FEF9C3" stop-opacity="0"/><stop offset="1" stop-color="#FEF9C3" stop-opacity=".2"/></linearGradient><linearGradient id="m" x1="20" y1="35" x2="20" y2="45" gradientUnits="userSpaceOnUse"><stop stop-color="#fff"/><stop offset="1" stop-color="#F3F3F3" stop-opacity=".2"/></linearGradient><linearGradient id="p" x1="27" y1="27" x2="27" y2="37" gradientUnits="userSpaceOnUse"><stop stop-color="#fff"/><stop offset="1" stop-color="#F3F3F3" stop-opacity=".2"/></linearGradient><linearGradient id="r" x1="51" y1="32" x2="51" y2="42" gradientUnits="userSpaceOnUse"><stop stop-color="#fff"/><stop offset="1" stop-color="#F3F3F3" stop-opacity=".2"/></linearGradient><linearGradient id="u" x1="40" y1="19" x2="40" y2="29" gradientUnits="userSpaceOnUse"><stop stop-color="#fff"/><stop offset="1" stop-color="#F3F3F3" stop-opacity=".2"/></linearGradient><linearGradient id="w" x1="36" y1="31" x2="36" y2="44" gradientUnits="userSpaceOnUse"><stop stop-color="#F1F5F9"/><stop offset=".65" stop-color="#F1F5F9" stop-opacity="0"/></linearGradient><linearGradient id="y" x1="36" y1="33" x2="36" y2="42" gradientUnits="userSpaceOnUse"><stop stop-color="#fff"/><stop offset="1" stop-color="#F3F3F3" stop-opacity=".2"/></linearGradient><radialGradient id="c" cx="0" cy="0" r="1" gradientUnits="userSpaceOnUse" gradientTransform="matrix(0 30 -29.9999 0 23 14)"><stop stop-color="#FACC15"/><stop offset="1" stop-color="#D97706"/></radialGradient><clipPath id="a"><path fill="#fff" d="M0 0h64v64H0z"/></clipPath></defs></svg>