<svg width="69" height="66" fill="none" xmlns="http://www.w3.org/2000/svg"><g filter="url(#a)"><path d="M34.53 11.22c-.27-.1-.56.06-.68.31a3 3 0 0 1-5.71-1c-.03-.29-.25-.54-.53-.53-.29 0-.5.26-.5.55a3 3 0 0 1-5.67 1.26c-.13-.26-.43-.4-.7-.29-.25.12-.35.43-.25.7a3 3 0 0 1-4.75 3.33c-.22-.18-.55-.2-.74 0-.2.2-.17.54.03.75a3 3 0 0 1-3.12 4.89c-.27-.09-.59.02-.69.28-.1.27.06.56.31.68a3 3 0 0 1-1 5.71c-.29.03-.54.25-.53.53 0 .29.26.5.55.5a3 3 0 0 1 1.26 5.67c-.26.13-.4.43-.29.7.12.25.43.35.7.25a3 3 0 0 1 3.33 4.75c-.18.22-.2.55 0 .74.2.2.54.17.75-.03a3 3 0 0 1 4.89 3.12c-.09.27.02.59.28.69.27.1.56-.05.68-.31a3 3 0 0 1 5.71 1c.03.29.25.54.53.53.29 0 .5-.26.5-.55a3 3 0 0 1 5.67-1.26c.13.26.43.4.7.29.25-.12.35-.43.25-.7a3 3 0 0 1 4.75-3.33c.22.18.55.2.74 0 .2-.2.17-.54-.03-.75a3 3 0 0 1 3.12-4.89c.27.09.59-.02.69-.28.1-.27-.05-.56-.31-.68a3 3 0 0 1 1-5.71c.29-.03.54-.25.53-.53 0-.29-.26-.5-.55-.5a3 3 0 0 1-1.26-5.67c.26-.13.4-.43.29-.7-.12-.25-.43-.35-.7-.25a3 3 0 0 1-3.33-4.75c.18-.22.2-.55 0-.74-.2-.2-.54-.17-.75.03a3 3 0 0 1-4.89-3.12c.09-.27-.02-.59-.28-.69Z" fill="url(#b)"/></g><g filter="url(#c)"><circle cx="28" cy="28" r="12" fill="url(#d)"/></g><g filter="url(#e)"><circle cx="28" cy="28" r="12" fill="url(#f)"/></g><g filter="url(#g)"><ellipse cx="28" cy="23" rx="7" ry="5" fill="url(#h)" style="mix-blend-mode:soft-light"/></g><g filter="url(#i)"><path d="M26.06 53.74c-.92-3.83-3.1-5.42-4.06-5.74h36c-1.55 1.75-3.48 4.2-3.48 5.74 0 1.53.38 4.14 1.16 5.26H24.9c.78-.16 2.1-1.43 1.16-5.26Z" fill="url(#j)"/></g><g filter="url(#k)"><path fill-rule="evenodd" clip-rule="evenodd" d="M58 31.51v-.01a12.5 12.5 0 0 0-24.24-4.3A8.03 8.03 0 0 0 24 35.06 7 7 0 0 0 25 49h30a9 9 0 0 0 3-17.49Z" fill="#64748B"/></g><g filter="url(#l)"><path fill-rule="evenodd" clip-rule="evenodd" d="M64 40a9 9 0 0 1-9 9H25a7 7 0 1 1 6.33-10h14.72A9 9 0 0 1 64 40Z" fill="#F1F5F9"/></g><g filter="url(#m)"><circle cx="25" cy="42" r="5" fill="url(#n)" style="mix-blend-mode:soft-light"/></g><g filter="url(#o)"><circle cx="32" cy="35" r="8" fill="#F1F5F9"/></g><g filter="url(#p)"><ellipse cx="32" cy="34" rx="6" ry="5" fill="url(#q)" style="mix-blend-mode:soft-light"/></g><g filter="url(#r)"><circle cx="56" cy="39" r="5" fill="url(#s)" style="mix-blend-mode:soft-light"/></g><g filter="url(#t)"><circle cx="45.5" cy="31.5" r="12.5" fill="#F1F5F9"/></g><g filter="url(#u)"><ellipse cx="45" cy="26" rx="7" ry="5" fill="url(#v)" style="mix-blend-mode:soft-light"/></g><g filter="url(#w)"><ellipse cx="41" cy="39.5" rx="9" ry="6.5" fill="url(#x)"/></g><g filter="url(#y)"><ellipse cx="41" cy="39.5" rx="7" ry="4.5" fill="url(#z)" style="mix-blend-mode:soft-light"/></g><path fill-rule="evenodd" clip-rule="evenodd" d="M58 31.51v-.01a12.5 12.5 0 0 0-24.24-4.3A8.03 8.03 0 0 0 24 35.06 7 7 0 0 0 25 49h30a9 9 0 0 0 3-17.49Z" fill="#1E293B" style="mix-blend-mode:overlay"/><path fill-rule="evenodd" clip-rule="evenodd" d="M58 31.51v-.01a12.5 12.5 0 0 0-24.24-4.3A8.03 8.03 0 0 0 24 35.06 7 7 0 0 0 25 49h30a9 9 0 0 0 3-17.49Z" fill="#334155" fill-opacity=".3" style="mix-blend-mode:multiply"/><g filter="url(#A)"><path fill-rule="evenodd" clip-rule="evenodd" d="M39 48s1.7.5 2.5.5S44 48 44 48l-1.36 2.53a1 1 0 0 0 .89 1.47h.33a1 1 0 0 1 .79 1.62l-6.22 7.88 2.06-6.18a1 1 0 0 0-.95-1.32h-1.15a1 1 0 0 1-.95-1.32L39 48Z" fill="#FCD34D"/></g><g filter="url(#B)"><path d="M41 46c-7.09 0-14 2.03-14 3h28c0-.97-6.91-3-14-3Z" fill="url(#C)"/></g><defs><filter id="a" x="0" y="0" width="56" height="56" filterUnits="userSpaceOnUse" color-interpolation-filters="sRGB"><feFlood flood-opacity="0" result="BackgroundImageFix"/><feColorMatrix in="SourceAlpha" values="0 0 0 0 0 0 0 0 0 0 0 0 0 0 0 0 0 0 127 0" result="hardAlpha"/><feOffset/><feGaussianBlur stdDeviation="5"/><feComposite in2="hardAlpha" operator="out"/><feColorMatrix values="0 0 0 0 0.980392 0 0 0 0 0.8 0 0 0 0 0.0823529 0 0 0 0.7 0"/><feBlend in2="BackgroundImageFix" result="effect1_dropShadow_4_34527"/><feBlend in="SourceGraphic" in2="effect1_dropShadow_4_34527" result="shape"/></filter><filter id="c" x="16" y="15" width="24" height="25" filterUnits="userSpaceOnUse" color-interpolation-filters="sRGB"><feFlood flood-opacity="0" result="BackgroundImageFix"/><feBlend in="SourceGraphic" in2="BackgroundImageFix" result="shape"/><feColorMatrix in="SourceAlpha" values="0 0 0 0 0 0 0 0 0 0 0 0 0 0 0 0 0 0 127 0" result="hardAlpha"/><feOffset dy="-1"/><feGaussianBlur stdDeviation="1"/><feComposite in2="hardAlpha" operator="arithmetic" k2="-1" k3="1"/><feColorMatrix values="0 0 0 0 0.992157 0 0 0 0 0.878431 0 0 0 0 0.278431 0 0 0 1 0"/><feBlend in2="shape" result="effect1_innerShadow_4_34527"/></filter><filter id="e" x="16" y="15" width="24" height="26" filterUnits="userSpaceOnUse" color-interpolation-filters="sRGB"><feFlood flood-opacity="0" result="BackgroundImageFix"/><feBlend in="SourceGraphic" in2="BackgroundImageFix" result="shape"/><feColorMatrix in="SourceAlpha" values="0 0 0 0 0 0 0 0 0 0 0 0 0 0 0 0 0 0 127 0" result="hardAlpha"/><feOffset dy="-1"/><feGaussianBlur stdDeviation="1.5"/><feComposite in2="hardAlpha" operator="arithmetic" k2="-1" k3="1"/><feColorMatrix values="0 0 0 0 0.992157 0 0 0 0 0.878431 0 0 0 0 0.278431 0 0 0 1 0"/><feBlend in2="shape" result="effect1_innerShadow_4_34527"/><feColorMatrix in="SourceAlpha" values="0 0 0 0 0 0 0 0 0 0 0 0 0 0 0 0 0 0 127 0" result="hardAlpha"/><feOffset dy="1"/><feGaussianBlur stdDeviation=".5"/><feComposite in2="hardAlpha" operator="arithmetic" k2="-1" k3="1"/><feColorMatrix values="0 0 0 0 0.996078 0 0 0 0 0.941176 0 0 0 0 0.541176 0 0 0 1 0"/><feBlend in2="effect1_innerShadow_4_34527" result="effect2_innerShadow_4_34527"/></filter><filter id="g" x="19" y="16" width="18" height="14" filterUnits="userSpaceOnUse" color-interpolation-filters="sRGB"><feFlood flood-opacity="0" result="BackgroundImageFix"/><feBlend in="SourceGraphic" in2="BackgroundImageFix" result="shape"/><feGaussianBlur stdDeviation="1" result="effect1_foregroundBlur_4_34527"/></filter><filter id="i" x="20" y="46" width="40" height="15" filterUnits="userSpaceOnUse" color-interpolation-filters="sRGB"><feFlood flood-opacity="0" result="BackgroundImageFix"/><feBlend in="SourceGraphic" in2="BackgroundImageFix" result="shape"/><feGaussianBlur stdDeviation="1" result="effect1_foregroundBlur_4_34527"/></filter><filter id="k" x="14" y="17" width="54" height="38" filterUnits="userSpaceOnUse" color-interpolation-filters="sRGB"><feFlood flood-opacity="0" result="BackgroundImageFix"/><feColorMatrix in="SourceAlpha" values="0 0 0 0 0 0 0 0 0 0 0 0 0 0 0 0 0 0 127 0" result="hardAlpha"/><feOffset dy="2"/><feGaussianBlur stdDeviation="2"/><feComposite in2="hardAlpha" operator="out"/><feColorMatrix values="0 0 0 0 0.278431 0 0 0 0 0.333333 0 0 0 0 0.411765 0 0 0 0.4 0"/><feBlend in2="BackgroundImageFix" result="effect1_dropShadow_4_34527"/><feBlend in="SourceGraphic" in2="effect1_dropShadow_4_34527" result="shape"/></filter><filter id="l" x="18" y="29" width="46" height="22" filterUnits="userSpaceOnUse" color-interpolation-filters="sRGB"><feFlood flood-opacity="0" result="BackgroundImageFix"/><feBlend in="SourceGraphic" in2="BackgroundImageFix" result="shape"/><feColorMatrix in="SourceAlpha" values="0 0 0 0 0 0 0 0 0 0 0 0 0 0 0 0 0 0 127 0" result="hardAlpha"/><feOffset dy="2"/><feGaussianBlur stdDeviation="1"/><feComposite in2="hardAlpha" operator="arithmetic" k2="-1" k3="1"/><feColorMatrix values="0 0 0 0 0.796078 0 0 0 0 0.835294 0 0 0 0 0.882353 0 0 0 1 0"/><feBlend in2="shape" result="effect1_innerShadow_4_34527"/><feColorMatrix in="SourceAlpha" values="0 0 0 0 0 0 0 0 0 0 0 0 0 0 0 0 0 0 127 0" result="hardAlpha"/><feOffset dy="-2"/><feGaussianBlur stdDeviation="1"/><feComposite in2="hardAlpha" operator="arithmetic" k2="-1" k3="1"/><feColorMatrix values="0 0 0 0 0.796078 0 0 0 0 0.835294 0 0 0 0 0.882353 0 0 0 0.6 0"/><feBlend in2="effect1_innerShadow_4_34527" result="effect2_innerShadow_4_34527"/></filter><filter id="m" x="18" y="35" width="14" height="14" filterUnits="userSpaceOnUse" color-interpolation-filters="sRGB"><feFlood flood-opacity="0" result="BackgroundImageFix"/><feBlend in="SourceGraphic" in2="BackgroundImageFix" result="shape"/><feGaussianBlur stdDeviation="1" result="effect1_foregroundBlur_4_34527"/></filter><filter id="o" x="24" y="27" width="16" height="18" filterUnits="userSpaceOnUse" color-interpolation-filters="sRGB"><feFlood flood-opacity="0" result="BackgroundImageFix"/><feBlend in="SourceGraphic" in2="BackgroundImageFix" result="shape"/><feColorMatrix in="SourceAlpha" values="0 0 0 0 0 0 0 0 0 0 0 0 0 0 0 0 0 0 127 0" result="hardAlpha"/><feOffset dy="2"/><feGaussianBlur stdDeviation="1"/><feComposite in2="hardAlpha" operator="arithmetic" k2="-1" k3="1"/><feColorMatrix values="0 0 0 0 0.796078 0 0 0 0 0.835294 0 0 0 0 0.882353 0 0 0 1 0"/><feBlend in2="shape" result="effect1_innerShadow_4_34527"/></filter><filter id="p" x="24" y="27" width="16" height="14" filterUnits="userSpaceOnUse" color-interpolation-filters="sRGB"><feFlood flood-opacity="0" result="BackgroundImageFix"/><feBlend in="SourceGraphic" in2="BackgroundImageFix" result="shape"/><feGaussianBlur stdDeviation="1" result="effect1_foregroundBlur_4_34527"/></filter><filter id="r" x="49" y="32" width="14" height="14" filterUnits="userSpaceOnUse" color-interpolation-filters="sRGB"><feFlood flood-opacity="0" result="BackgroundImageFix"/><feBlend in="SourceGraphic" in2="BackgroundImageFix" result="shape"/><feGaussianBlur stdDeviation="1" result="effect1_foregroundBlur_4_34527"/></filter><filter id="t" x="33" y="19" width="25" height="27" filterUnits="userSpaceOnUse" color-interpolation-filters="sRGB"><feFlood flood-opacity="0" result="BackgroundImageFix"/><feBlend in="SourceGraphic" in2="BackgroundImageFix" result="shape"/><feColorMatrix in="SourceAlpha" values="0 0 0 0 0 0 0 0 0 0 0 0 0 0 0 0 0 0 127 0" result="hardAlpha"/><feOffset dy="2"/><feGaussianBlur stdDeviation="1"/><feComposite in2="hardAlpha" operator="arithmetic" k2="-1" k3="1"/><feColorMatrix values="0 0 0 0 0.796078 0 0 0 0 0.835294 0 0 0 0 0.882353 0 0 0 1 0"/><feBlend in2="shape" result="effect1_innerShadow_4_34527"/></filter><filter id="u" x="36" y="19" width="18" height="14" filterUnits="userSpaceOnUse" color-interpolation-filters="sRGB"><feFlood flood-opacity="0" result="BackgroundImageFix"/><feBlend in="SourceGraphic" in2="BackgroundImageFix" result="shape"/><feGaussianBlur stdDeviation="1" result="effect1_foregroundBlur_4_34527"/></filter><filter id="w" x="32" y="33" width="18" height="15" filterUnits="userSpaceOnUse" color-interpolation-filters="sRGB"><feFlood flood-opacity="0" result="BackgroundImageFix"/><feBlend in="SourceGraphic" in2="BackgroundImageFix" result="shape"/><feColorMatrix in="SourceAlpha" values="0 0 0 0 0 0 0 0 0 0 0 0 0 0 0 0 0 0 127 0" result="hardAlpha"/><feOffset dy="2"/><feGaussianBlur stdDeviation="1"/><feComposite in2="hardAlpha" operator="arithmetic" k2="-1" k3="1"/><feColorMatrix values="0 0 0 0 0.796078 0 0 0 0 0.835294 0 0 0 0 0.882353 0 0 0 0.6 0"/><feBlend in2="shape" result="effect1_innerShadow_4_34527"/></filter><filter id="y" x="32" y="33" width="18" height="13" filterUnits="userSpaceOnUse" color-interpolation-filters="sRGB"><feFlood flood-opacity="0" result="BackgroundImageFix"/><feBlend in="SourceGraphic" in2="BackgroundImageFix" result="shape"/><feGaussianBlur stdDeviation="1" result="effect1_foregroundBlur_4_34527"/></filter><filter id="A" x="35.39" y="46" width="11.48" height="17.5" filterUnits="userSpaceOnUse" color-interpolation-filters="sRGB"><feFlood flood-opacity="0" result="BackgroundImageFix"/><feColorMatrix in="SourceAlpha" values="0 0 0 0 0 0 0 0 0 0 0 0 0 0 0 0 0 0 127 0" result="hardAlpha"/><feOffset/><feGaussianBlur stdDeviation="1"/><feComposite in2="hardAlpha" operator="out"/><feColorMatrix values="0 0 0 0 0.988235 0 0 0 0 0.827451 0 0 0 0 0.301961 0 0 0 1 0"/><feBlend in2="BackgroundImageFix" result="effect1_dropShadow_4_34527"/><feBlend in="SourceGraphic" in2="effect1_dropShadow_4_34527" result="shape"/><feColorMatrix in="SourceAlpha" values="0 0 0 0 0 0 0 0 0 0 0 0 0 0 0 0 0 0 127 0" result="hardAlpha"/><feOffset dy="4"/><feGaussianBlur stdDeviation="1"/><feComposite in2="hardAlpha" operator="arithmetic" k2="-1" k3="1"/><feColorMatrix values="0 0 0 0 1 0 0 0 0 0.9575 0 0 0 0 0.7875 0 0 0 1 0"/><feBlend in2="shape" result="effect2_innerShadow_4_34527"/><feColorMatrix in="SourceAlpha" values="0 0 0 0 0 0 0 0 0 0 0 0 0 0 0 0 0 0 127 0" result="hardAlpha"/><feOffset/><feGaussianBlur stdDeviation=".5"/><feComposite in2="hardAlpha" operator="arithmetic" k2="-1" k3="1"/><feColorMatrix values="0 0 0 0 0.960784 0 0 0 0 0.619608 0 0 0 0 0.0431373 0 0 0 1 0"/><feBlend in2="effect2_innerShadow_4_34527" result="effect3_innerShadow_4_34527"/></filter><filter id="B" x="25" y="44" width="32" height="7" filterUnits="userSpaceOnUse" color-interpolation-filters="sRGB"><feFlood flood-opacity="0" result="BackgroundImageFix"/><feBlend in="SourceGraphic" in2="BackgroundImageFix" result="shape"/><feGaussianBlur stdDeviation="1" result="effect1_foregroundBlur_4_34527"/></filter><linearGradient id="d" x1="28" y1="16" x2="28" y2="40" gradientUnits="userSpaceOnUse"><stop stop-color="#FEF08A"/><stop offset="1" stop-color="#F59E0B"/></linearGradient><linearGradient id="f" x1="28" y1="16" x2="28" y2="40" gradientUnits="userSpaceOnUse"><stop stop-color="#FFF28F"/><stop offset="1" stop-color="#F79B00"/></linearGradient><linearGradient id="h" x1="28" y1="18" x2="28" y2="28" gradientUnits="userSpaceOnUse"><stop stop-color="#FEF9C3"/><stop offset="1" stop-color="#FEF9C3" stop-opacity="0"/><stop offset="1" stop-color="#FEF9C3" stop-opacity=".2"/></linearGradient><linearGradient id="j" x1="40" y1="48" x2="40" y2="59" gradientUnits="userSpaceOnUse"><stop stop-color="#94A3B8"/><stop offset="1" stop-color="#94A3B8" stop-opacity="0"/></linearGradient><linearGradient id="n" x1="25" y1="37" x2="25" y2="47" gradientUnits="userSpaceOnUse"><stop stop-color="#fff"/><stop offset="1" stop-color="#F3F3F3" stop-opacity=".2"/></linearGradient><linearGradient id="q" x1="32" y1="29" x2="32" y2="39" gradientUnits="userSpaceOnUse"><stop stop-color="#fff"/><stop offset="1" stop-color="#F3F3F3" stop-opacity=".2"/></linearGradient><linearGradient id="s" x1="56" y1="34" x2="56" y2="44" gradientUnits="userSpaceOnUse"><stop stop-color="#fff"/><stop offset="1" stop-color="#F3F3F3" stop-opacity=".2"/></linearGradient><linearGradient id="v" x1="45" y1="21" x2="45" y2="31" gradientUnits="userSpaceOnUse"><stop stop-color="#fff"/><stop offset="1" stop-color="#F3F3F3" stop-opacity=".2"/></linearGradient><linearGradient id="x" x1="41" y1="33" x2="41" y2="46" gradientUnits="userSpaceOnUse"><stop stop-color="#F1F5F9"/><stop offset=".65" stop-color="#F1F5F9" stop-opacity="0"/></linearGradient><linearGradient id="z" x1="41" y1="35" x2="41" y2="44" gradientUnits="userSpaceOnUse"><stop stop-color="#fff"/><stop offset="1" stop-color="#F3F3F3" stop-opacity=".2"/></linearGradient><radialGradient id="b" cx="0" cy="0" r="1" gradientUnits="userSpaceOnUse" gradientTransform="matrix(0 30 -29.9999 0 28 16)"><stop stop-color="#FACC15"/><stop offset="1" stop-color="#D97706"/></radialGradient><radialGradient id="C" cx="0" cy="0" r="1" gradientUnits="userSpaceOnUse" gradientTransform="matrix(0 -6 13.44 0 41 49.5)"><stop offset=".28" stop-color="#FEF08A"/><stop offset="1" stop-color="#FEF08A" stop-opacity="0"/></radialGradient></defs></svg>