<svg width="64" height="64" fill="none" xmlns="http://www.w3.org/2000/svg"><g filter="url(#a)"><path d="M38.53 15.22c-.27-.1-.56.06-.68.31a3 3 0 0 1-5.71-1c-.03-.29-.25-.54-.53-.53-.29 0-.5.26-.5.55a3 3 0 0 1-5.67 1.26c-.13-.26-.43-.4-.7-.29-.25.12-.35.43-.25.7a3 3 0 0 1-4.75 3.33c-.22-.18-.55-.2-.74 0-.2.2-.17.54.03.75a3 3 0 0 1-3.12 4.89c-.27-.09-.59.02-.69.28-.1.27.06.56.31.68a3 3 0 0 1-1 5.71c-.29.03-.54.25-.53.53 0 .29.26.5.55.5a3 3 0 0 1 1.26 5.67c-.26.13-.4.43-.29.7.12.25.43.35.7.25a3 3 0 0 1 3.33 4.75c-.18.22-.2.55 0 .74.2.2.54.17.75-.03a3 3 0 0 1 4.89 3.12c-.09.27.02.59.28.69.27.1.56-.05.68-.31a3 3 0 0 1 5.71 1c.03.29.25.54.53.53.29 0 .5-.26.5-.55a3 3 0 0 1 5.67-1.26c.13.26.43.4.7.29.25-.12.35-.43.25-.7a3 3 0 0 1 4.75-3.33c.22.18.55.2.74 0 .2-.2.17-.54-.03-.75a3 3 0 0 1 3.12-4.89c.27.09.59-.02.69-.28.1-.27-.05-.56-.31-.68a3 3 0 0 1 1-5.71c.29-.03.54-.25.53-.53 0-.29-.26-.5-.55-.5a3 3 0 0 1-1.26-5.67c.26-.13.4-.43.29-.7-.12-.25-.43-.35-.7-.25a3 3 0 0 1-3.33-4.75c.18-.22.2-.55 0-.74-.2-.2-.54-.17-.75.03a3 3 0 0 1-4.89-3.12c.09-.27-.02-.59-.28-.69Z" fill="url(#b)"/></g><g filter="url(#c)"><circle cx="32" cy="32" r="12" fill="url(#d)"/></g><g filter="url(#e)"><circle cx="32" cy="32" r="12" fill="url(#f)"/></g><g filter="url(#g)"><ellipse cx="32" cy="27" rx="7" ry="5" fill="url(#h)" style="mix-blend-mode:soft-light"/></g><defs><filter id="a" x="4" y="4" width="56" height="56" filterUnits="userSpaceOnUse" color-interpolation-filters="sRGB"><feFlood flood-opacity="0" result="BackgroundImageFix"/><feColorMatrix in="SourceAlpha" values="0 0 0 0 0 0 0 0 0 0 0 0 0 0 0 0 0 0 127 0" result="hardAlpha"/><feOffset/><feGaussianBlur stdDeviation="5"/><feComposite in2="hardAlpha" operator="out"/><feColorMatrix values="0 0 0 0 0.980392 0 0 0 0 0.8 0 0 0 0 0.0823529 0 0 0 0.7 0"/><feBlend in2="BackgroundImageFix" result="effect1_dropShadow_4_34458"/><feBlend in="SourceGraphic" in2="effect1_dropShadow_4_34458" result="shape"/></filter><filter id="c" x="20" y="19" width="24" height="25" filterUnits="userSpaceOnUse" color-interpolation-filters="sRGB"><feFlood flood-opacity="0" result="BackgroundImageFix"/><feBlend in="SourceGraphic" in2="BackgroundImageFix" result="shape"/><feColorMatrix in="SourceAlpha" values="0 0 0 0 0 0 0 0 0 0 0 0 0 0 0 0 0 0 127 0" result="hardAlpha"/><feOffset dy="-1"/><feGaussianBlur stdDeviation="1"/><feComposite in2="hardAlpha" operator="arithmetic" k2="-1" k3="1"/><feColorMatrix values="0 0 0 0 0.992157 0 0 0 0 0.878431 0 0 0 0 0.278431 0 0 0 1 0"/><feBlend in2="shape" result="effect1_innerShadow_4_34458"/></filter><filter id="e" x="20" y="19" width="24" height="26" filterUnits="userSpaceOnUse" color-interpolation-filters="sRGB"><feFlood flood-opacity="0" result="BackgroundImageFix"/><feBlend in="SourceGraphic" in2="BackgroundImageFix" result="shape"/><feColorMatrix in="SourceAlpha" values="0 0 0 0 0 0 0 0 0 0 0 0 0 0 0 0 0 0 127 0" result="hardAlpha"/><feOffset dy="-1"/><feGaussianBlur stdDeviation="1.5"/><feComposite in2="hardAlpha" operator="arithmetic" k2="-1" k3="1"/><feColorMatrix values="0 0 0 0 0.992157 0 0 0 0 0.878431 0 0 0 0 0.278431 0 0 0 1 0"/><feBlend in2="shape" result="effect1_innerShadow_4_34458"/><feColorMatrix in="SourceAlpha" values="0 0 0 0 0 0 0 0 0 0 0 0 0 0 0 0 0 0 127 0" result="hardAlpha"/><feOffset dy="1"/><feGaussianBlur stdDeviation=".5"/><feComposite in2="hardAlpha" operator="arithmetic" k2="-1" k3="1"/><feColorMatrix values="0 0 0 0 0.996078 0 0 0 0 0.941176 0 0 0 0 0.541176 0 0 0 1 0"/><feBlend in2="effect1_innerShadow_4_34458" result="effect2_innerShadow_4_34458"/></filter><filter id="g" x="23" y="20" width="18" height="14" filterUnits="userSpaceOnUse" color-interpolation-filters="sRGB"><feFlood flood-opacity="0" result="BackgroundImageFix"/><feBlend in="SourceGraphic" in2="BackgroundImageFix" result="shape"/><feGaussianBlur stdDeviation="1" result="effect1_foregroundBlur_4_34458"/></filter><linearGradient id="d" x1="32" y1="20" x2="32" y2="44" gradientUnits="userSpaceOnUse"><stop stop-color="#FEF08A"/><stop offset="1" stop-color="#F59E0B"/></linearGradient><linearGradient id="f" x1="32" y1="20" x2="32" y2="44" gradientUnits="userSpaceOnUse"><stop stop-color="#FFF28F"/><stop offset="1" stop-color="#F79B00"/></linearGradient><linearGradient id="h" x1="32" y1="22" x2="32" y2="32" gradientUnits="userSpaceOnUse"><stop stop-color="#FEF9C3"/><stop offset="1" stop-color="#FEF9C3" stop-opacity="0"/><stop offset="1" stop-color="#FEF9C3" stop-opacity=".2"/></linearGradient><radialGradient id="b" cx="0" cy="0" r="1" gradientUnits="userSpaceOnUse" gradientTransform="matrix(0 30 -29.9999 0 32 20)"><stop stop-color="#FACC15"/><stop offset="1" stop-color="#D97706"/></radialGradient></defs></svg>