<svg width="64" height="64" fill="none" xmlns="http://www.w3.org/2000/svg"><g filter="url(#a)"><path d="M17.06 47.74c-.92-3.83-3.1-5.42-4.06-5.74h36c-1.55 1.75-3.48 4.2-3.48 5.74 0 1.53.38 4.14 1.16 5.26H15.9c.78-.16 2.1-1.43 1.16-5.26Z" fill="url(#b)"/></g><g filter="url(#c)"><path fill-rule="evenodd" clip-rule="evenodd" d="M49 25.51v-.01a12.5 12.5 0 0 0-24.24-4.3A8.03 8.03 0 0 0 15 29.06 7 7 0 0 0 16 43h30a9 9 0 0 0 3-17.49Z" fill="#64748B"/></g><g filter="url(#d)"><path fill-rule="evenodd" clip-rule="evenodd" d="M55 34a9 9 0 0 1-9 9H16a7 7 0 1 1 6.33-10h14.72A9 9 0 0 1 55 34Z" fill="#F1F5F9"/></g><g filter="url(#e)"><circle cx="16" cy="36" r="5" fill="url(#f)" style="mix-blend-mode:soft-light"/></g><g filter="url(#g)"><circle cx="23" cy="29" r="8" fill="#F1F5F9"/></g><g filter="url(#h)"><ellipse cx="23" cy="28" rx="6" ry="5" fill="url(#i)" style="mix-blend-mode:soft-light"/></g><g filter="url(#j)"><circle cx="47" cy="33" r="5" fill="url(#k)" style="mix-blend-mode:soft-light"/></g><g filter="url(#l)"><circle cx="36.5" cy="25.5" r="12.5" fill="#F1F5F9"/></g><g filter="url(#m)"><ellipse cx="36" cy="20" rx="7" ry="5" fill="url(#n)" style="mix-blend-mode:soft-light"/></g><g filter="url(#o)"><ellipse cx="32" cy="33.5" rx="9" ry="6.5" fill="url(#p)"/></g><g filter="url(#q)"><ellipse cx="32" cy="33.5" rx="7" ry="4.5" fill="url(#r)" style="mix-blend-mode:soft-light"/></g><path fill-rule="evenodd" clip-rule="evenodd" d="M49 25.51v-.01a12.5 12.5 0 0 0-24.24-4.3A8.03 8.03 0 0 0 15 29.06 7 7 0 0 0 16 43h30a9 9 0 0 0 3-17.49Z" fill="#93C5FD" style="mix-blend-mode:color"/><path fill-rule="evenodd" clip-rule="evenodd" d="M49 25.51v-.01a12.5 12.5 0 0 0-24.24-4.3A8.03 8.03 0 0 0 15 29.06 7 7 0 0 0 16 43h30a9 9 0 0 0 3-17.49Z" fill="#3730A3" style="mix-blend-mode:color"/><path fill-rule="evenodd" clip-rule="evenodd" d="M49 25.51v-.01a12.5 12.5 0 0 0-24.24-4.3A8.03 8.03 0 0 0 15 29.06 7 7 0 0 0 16 43h30a9 9 0 0 0 3-17.49Z" fill="#4338CA" fill-opacity=".15" style="mix-blend-mode:multiply"/><g filter="url(#s)"><path d="m28.76 52.94 3.61-5.91c.12-.2.42-.08.37.14l-1.5 6.77a1.35 1.35 0 1 1-2.48-1Z" fill="#3B82F6"/></g><path d="M30.82 54.1a1 1 0 1 1-1.84-.8c.22-.5 2.51-5.02 3.02-4.8.5.22-.96 5.08-1.18 5.6Z" fill="url(#t)"/><g filter="url(#u)"><path d="m22.76 52.94 3.61-5.91c.12-.2.42-.08.37.14l-1.5 6.77a1.35 1.35 0 1 1-2.48-1Z" fill="#3B82F6"/></g><path d="M24.82 54.1a1 1 0 1 1-1.84-.8c.22-.5 2.51-5.02 3.02-4.8.5.22-.96 5.08-1.18 5.6Z" fill="url(#v)"/><g filter="url(#w)"><path fill-rule="evenodd" clip-rule="evenodd" d="M41.03 47v1.77l1.53-.89a1 1 0 0 1 1 1.74l-1.53.88 1.53.88a1 1 0 0 1-1 1.74l-1.53-.89V54a1 1 0 1 1-2 0v-1.77l-1.53.89a1 1 0 0 1-1-1.74l1.53-.88-1.53-.88a1 1 0 1 1 1-1.74l1.53.89V47a1 1 0 1 1 2 0Z" fill="#E2E8F0"/></g><path fill-rule="evenodd" clip-rule="evenodd" d="M41.03 47v1.77l1.53-.89a1 1 0 0 1 1 1.74l-1.53.88 1.53.88a1 1 0 0 1-1 1.74l-1.53-.89V54a1 1 0 1 1-2 0v-1.77l-1.53.89a1 1 0 0 1-1-1.74l1.53-.88-1.53-.88a1 1 0 1 1 1-1.74l1.53.89V47a1 1 0 1 1 2 0Z" fill="#BFDBFE" style="mix-blend-mode:color"/><circle cx="40.03" cy="47.05" r=".75" fill="url(#x)"/><circle cx="37.03" cy="48.75" r=".75" fill="url(#y)"/><circle cx="37.03" cy="52.25" r=".75" fill="url(#z)"/><circle cx="43.03" cy="48.75" r=".75" fill="url(#A)"/><circle cx="43.03" cy="52.25" r=".75" fill="url(#B)"/><defs><filter id="a" x="11" y="40" width="40" height="15" filterUnits="userSpaceOnUse" color-interpolation-filters="sRGB"><feFlood flood-opacity="0" result="BackgroundImageFix"/><feBlend in="SourceGraphic" in2="BackgroundImageFix" result="shape"/><feGaussianBlur stdDeviation="1" result="effect1_foregroundBlur_4_34822"/></filter><filter id="c" x="5" y="11" width="54" height="38" filterUnits="userSpaceOnUse" color-interpolation-filters="sRGB"><feFlood flood-opacity="0" result="BackgroundImageFix"/><feColorMatrix in="SourceAlpha" values="0 0 0 0 0 0 0 0 0 0 0 0 0 0 0 0 0 0 127 0" result="hardAlpha"/><feOffset dy="2"/><feGaussianBlur stdDeviation="2"/><feComposite in2="hardAlpha" operator="out"/><feColorMatrix values="0 0 0 0 0.278431 0 0 0 0 0.333333 0 0 0 0 0.411765 0 0 0 0.4 0"/><feBlend in2="BackgroundImageFix" result="effect1_dropShadow_4_34822"/><feBlend in="SourceGraphic" in2="effect1_dropShadow_4_34822" result="shape"/></filter><filter id="d" x="9" y="23" width="46" height="22" filterUnits="userSpaceOnUse" color-interpolation-filters="sRGB"><feFlood flood-opacity="0" result="BackgroundImageFix"/><feBlend in="SourceGraphic" in2="BackgroundImageFix" result="shape"/><feColorMatrix in="SourceAlpha" values="0 0 0 0 0 0 0 0 0 0 0 0 0 0 0 0 0 0 127 0" result="hardAlpha"/><feOffset dy="2"/><feGaussianBlur stdDeviation="1"/><feComposite in2="hardAlpha" operator="arithmetic" k2="-1" k3="1"/><feColorMatrix values="0 0 0 0 0.796078 0 0 0 0 0.835294 0 0 0 0 0.882353 0 0 0 1 0"/><feBlend in2="shape" result="effect1_innerShadow_4_34822"/><feColorMatrix in="SourceAlpha" values="0 0 0 0 0 0 0 0 0 0 0 0 0 0 0 0 0 0 127 0" result="hardAlpha"/><feOffset dy="-2"/><feGaussianBlur stdDeviation="1"/><feComposite in2="hardAlpha" operator="arithmetic" k2="-1" k3="1"/><feColorMatrix values="0 0 0 0 0.796078 0 0 0 0 0.835294 0 0 0 0 0.882353 0 0 0 0.6 0"/><feBlend in2="effect1_innerShadow_4_34822" result="effect2_innerShadow_4_34822"/></filter><filter id="e" x="9" y="29" width="14" height="14" filterUnits="userSpaceOnUse" color-interpolation-filters="sRGB"><feFlood flood-opacity="0" result="BackgroundImageFix"/><feBlend in="SourceGraphic" in2="BackgroundImageFix" result="shape"/><feGaussianBlur stdDeviation="1" result="effect1_foregroundBlur_4_34822"/></filter><filter id="g" x="15" y="21" width="16" height="18" filterUnits="userSpaceOnUse" color-interpolation-filters="sRGB"><feFlood flood-opacity="0" result="BackgroundImageFix"/><feBlend in="SourceGraphic" in2="BackgroundImageFix" result="shape"/><feColorMatrix in="SourceAlpha" values="0 0 0 0 0 0 0 0 0 0 0 0 0 0 0 0 0 0 127 0" result="hardAlpha"/><feOffset dy="2"/><feGaussianBlur stdDeviation="1"/><feComposite in2="hardAlpha" operator="arithmetic" k2="-1" k3="1"/><feColorMatrix values="0 0 0 0 0.796078 0 0 0 0 0.835294 0 0 0 0 0.882353 0 0 0 1 0"/><feBlend in2="shape" result="effect1_innerShadow_4_34822"/></filter><filter id="h" x="15" y="21" width="16" height="14" filterUnits="userSpaceOnUse" color-interpolation-filters="sRGB"><feFlood flood-opacity="0" result="BackgroundImageFix"/><feBlend in="SourceGraphic" in2="BackgroundImageFix" result="shape"/><feGaussianBlur stdDeviation="1" result="effect1_foregroundBlur_4_34822"/></filter><filter id="j" x="40" y="26" width="14" height="14" filterUnits="userSpaceOnUse" color-interpolation-filters="sRGB"><feFlood flood-opacity="0" result="BackgroundImageFix"/><feBlend in="SourceGraphic" in2="BackgroundImageFix" result="shape"/><feGaussianBlur stdDeviation="1" result="effect1_foregroundBlur_4_34822"/></filter><filter id="l" x="24" y="13" width="25" height="27" filterUnits="userSpaceOnUse" color-interpolation-filters="sRGB"><feFlood flood-opacity="0" result="BackgroundImageFix"/><feBlend in="SourceGraphic" in2="BackgroundImageFix" result="shape"/><feColorMatrix in="SourceAlpha" values="0 0 0 0 0 0 0 0 0 0 0 0 0 0 0 0 0 0 127 0" result="hardAlpha"/><feOffset dy="2"/><feGaussianBlur stdDeviation="1"/><feComposite in2="hardAlpha" operator="arithmetic" k2="-1" k3="1"/><feColorMatrix values="0 0 0 0 0.796078 0 0 0 0 0.835294 0 0 0 0 0.882353 0 0 0 1 0"/><feBlend in2="shape" result="effect1_innerShadow_4_34822"/></filter><filter id="m" x="27" y="13" width="18" height="14" filterUnits="userSpaceOnUse" color-interpolation-filters="sRGB"><feFlood flood-opacity="0" result="BackgroundImageFix"/><feBlend in="SourceGraphic" in2="BackgroundImageFix" result="shape"/><feGaussianBlur stdDeviation="1" result="effect1_foregroundBlur_4_34822"/></filter><filter id="o" x="23" y="27" width="18" height="15" filterUnits="userSpaceOnUse" color-interpolation-filters="sRGB"><feFlood flood-opacity="0" result="BackgroundImageFix"/><feBlend in="SourceGraphic" in2="BackgroundImageFix" result="shape"/><feColorMatrix in="SourceAlpha" values="0 0 0 0 0 0 0 0 0 0 0 0 0 0 0 0 0 0 127 0" result="hardAlpha"/><feOffset dy="2"/><feGaussianBlur stdDeviation="1"/><feComposite in2="hardAlpha" operator="arithmetic" k2="-1" k3="1"/><feColorMatrix values="0 0 0 0 0.796078 0 0 0 0 0.835294 0 0 0 0 0.882353 0 0 0 0.6 0"/><feBlend in2="shape" result="effect1_innerShadow_4_34822"/></filter><filter id="q" x="23" y="27" width="18" height="13" filterUnits="userSpaceOnUse" color-interpolation-filters="sRGB"><feFlood flood-opacity="0" result="BackgroundImageFix"/><feBlend in="SourceGraphic" in2="BackgroundImageFix" result="shape"/><feGaussianBlur stdDeviation="1" result="effect1_foregroundBlur_4_34822"/></filter><filter id="s" x="28.56" y="46.43" width="4.19" height="8.57" filterUnits="userSpaceOnUse" color-interpolation-filters="sRGB"><feFlood flood-opacity="0" result="BackgroundImageFix"/><feBlend in="SourceGraphic" in2="BackgroundImageFix" result="shape"/><feColorMatrix in="SourceAlpha" values="0 0 0 0 0 0 0 0 0 0 0 0 0 0 0 0 0 0 127 0" result="hardAlpha"/><feOffset dy="-1"/><feComposite in2="hardAlpha" operator="arithmetic" k2="-1" k3="1"/><feColorMatrix values="0 0 0 0 0.231373 0 0 0 0 0.509804 0 0 0 0 0.964706 0 0 0 1 0"/><feBlend in2="shape" result="effect1_innerShadow_4_34822"/><feColorMatrix in="SourceAlpha" values="0 0 0 0 0 0 0 0 0 0 0 0 0 0 0 0 0 0 127 0" result="hardAlpha"/><feOffset dy="-.5"/><feGaussianBlur stdDeviation=".25"/><feComposite in2="hardAlpha" operator="arithmetic" k2="-1" k3="1"/><feColorMatrix values="0 0 0 0 0.113438 0 0 0 0 0.33625 0 0 0 0 0.825 0 0 0 1 0"/><feBlend in2="effect1_innerShadow_4_34822" result="effect2_innerShadow_4_34822"/></filter><filter id="u" x="22.56" y="46.43" width="4.19" height="8.57" filterUnits="userSpaceOnUse" color-interpolation-filters="sRGB"><feFlood flood-opacity="0" result="BackgroundImageFix"/><feBlend in="SourceGraphic" in2="BackgroundImageFix" result="shape"/><feColorMatrix in="SourceAlpha" values="0 0 0 0 0 0 0 0 0 0 0 0 0 0 0 0 0 0 127 0" result="hardAlpha"/><feOffset dy="-1"/><feComposite in2="hardAlpha" operator="arithmetic" k2="-1" k3="1"/><feColorMatrix values="0 0 0 0 0.231373 0 0 0 0 0.509804 0 0 0 0 0.964706 0 0 0 1 0"/><feBlend in2="shape" result="effect1_innerShadow_4_34822"/><feColorMatrix in="SourceAlpha" values="0 0 0 0 0 0 0 0 0 0 0 0 0 0 0 0 0 0 127 0" result="hardAlpha"/><feOffset dy="-.5"/><feGaussianBlur stdDeviation=".25"/><feComposite in2="hardAlpha" operator="arithmetic" k2="-1" k3="1"/><feColorMatrix values="0 0 0 0 0.113438 0 0 0 0 0.33625 0 0 0 0 0.825 0 0 0 1 0"/><feBlend in2="effect1_innerShadow_4_34822" result="effect2_innerShadow_4_34822"/></filter><filter id="w" x="33" y="44" width="14.06" height="15" filterUnits="userSpaceOnUse" color-interpolation-filters="sRGB"><feFlood flood-opacity="0" result="BackgroundImageFix"/><feColorMatrix in="SourceAlpha" values="0 0 0 0 0 0 0 0 0 0 0 0 0 0 0 0 0 0 127 0" result="hardAlpha"/><feOffset dy="1"/><feGaussianBlur stdDeviation="1.5"/><feComposite in2="hardAlpha" operator="out"/><feColorMatrix values="0 0 0 0 0.278431 0 0 0 0 0.333333 0 0 0 0 0.411765 0 0 0 0.3 0"/><feBlend in2="BackgroundImageFix" result="effect1_dropShadow_4_34822"/><feBlend in="SourceGraphic" in2="effect1_dropShadow_4_34822" result="shape"/><feColorMatrix in="SourceAlpha" values="0 0 0 0 0 0 0 0 0 0 0 0 0 0 0 0 0 0 127 0" result="hardAlpha"/><feOffset dy=".5"/><feGaussianBlur stdDeviation=".25"/><feComposite in2="hardAlpha" operator="arithmetic" k2="-1" k3="1"/><feColorMatrix values="0 0 0 0 0.580392 0 0 0 0 0.639216 0 0 0 0 0.721569 0 0 0 1 0"/><feBlend in2="shape" result="effect2_innerShadow_4_34822"/><feColorMatrix in="SourceAlpha" values="0 0 0 0 0 0 0 0 0 0 0 0 0 0 0 0 0 0 127 0" result="hardAlpha"/><feOffset dy="-.5"/><feGaussianBlur stdDeviation=".25"/><feComposite in2="hardAlpha" operator="arithmetic" k2="-1" k3="1"/><feColorMatrix values="0 0 0 0 0.580392 0 0 0 0 0.639216 0 0 0 0 0.721569 0 0 0 1 0"/><feBlend in2="effect2_innerShadow_4_34822" result="effect3_innerShadow_4_34822"/></filter><linearGradient id="b" x1="31" y1="42" x2="31" y2="53" gradientUnits="userSpaceOnUse"><stop stop-color="#A5B4FC"/><stop offset="1" stop-color="#818CF8" stop-opacity="0"/></linearGradient><linearGradient id="f" x1="16" y1="31" x2="16" y2="41" gradientUnits="userSpaceOnUse"><stop stop-color="#fff"/><stop offset="1" stop-color="#F3F3F3" stop-opacity=".2"/></linearGradient><linearGradient id="i" x1="23" y1="23" x2="23" y2="33" gradientUnits="userSpaceOnUse"><stop stop-color="#fff"/><stop offset="1" stop-color="#F3F3F3" stop-opacity=".2"/></linearGradient><linearGradient id="k" x1="47" y1="28" x2="47" y2="38" gradientUnits="userSpaceOnUse"><stop stop-color="#fff"/><stop offset="1" stop-color="#F3F3F3" stop-opacity=".2"/></linearGradient><linearGradient id="n" x1="36" y1="15" x2="36" y2="25" gradientUnits="userSpaceOnUse"><stop stop-color="#fff"/><stop offset="1" stop-color="#F3F3F3" stop-opacity=".2"/></linearGradient><linearGradient id="p" x1="32" y1="27" x2="32" y2="40" gradientUnits="userSpaceOnUse"><stop stop-color="#F1F5F9"/><stop offset=".65" stop-color="#F1F5F9" stop-opacity="0"/></linearGradient><linearGradient id="r" x1="32" y1="29" x2="32" y2="38" gradientUnits="userSpaceOnUse"><stop stop-color="#fff"/><stop offset="1" stop-color="#F3F3F3" stop-opacity=".2"/></linearGradient><linearGradient id="x" x1="40.03" y1="46.3" x2="40.03" y2="47.8" gradientUnits="userSpaceOnUse"><stop stop-color="#E2E8F0"/><stop offset="1" stop-color="#E2E8F0" stop-opacity="0"/></linearGradient><linearGradient id="y" x1="37.03" y1="48" x2="37.03" y2="49.5" gradientUnits="userSpaceOnUse"><stop stop-color="#E2E8F0"/><stop offset="1" stop-color="#E2E8F0" stop-opacity="0"/></linearGradient><linearGradient id="z" x1="37.03" y1="51.5" x2="37.03" y2="53" gradientUnits="userSpaceOnUse"><stop stop-color="#E2E8F0"/><stop offset="1" stop-color="#E2E8F0" stop-opacity="0"/></linearGradient><linearGradient id="A" x1="43.03" y1="48" x2="43.03" y2="49.5" gradientUnits="userSpaceOnUse"><stop stop-color="#E2E8F0"/><stop offset="1" stop-color="#E2E8F0" stop-opacity="0"/></linearGradient><linearGradient id="B" x1="43.03" y1="51.5" x2="43.03" y2="53" gradientUnits="userSpaceOnUse"><stop stop-color="#E2E8F0"/><stop offset="1" stop-color="#E2E8F0" stop-opacity="0"/></linearGradient><radialGradient id="t" cx="0" cy="0" r="1" gradientUnits="userSpaceOnUse" gradientTransform="matrix(2 -5 5 2 29.5 54.5)"><stop stop-color="#74D5FF"/><stop offset=".38" stop-color="#74D5FF" stop-opacity="0"/></radialGradient><radialGradient id="v" cx="0" cy="0" r="1" gradientUnits="userSpaceOnUse" gradientTransform="matrix(2 -5 5 2 23.5 54.5)"><stop stop-color="#74D5FF"/><stop offset=".38" stop-color="#74D5FF" stop-opacity="0"/></radialGradient></defs></svg>