<svg width="64" height="64" fill="none" xmlns="http://www.w3.org/2000/svg"><g filter="url(#a)"><circle cx="23" cy="26" r="16" fill="url(#b)"/></g><path fill-rule="evenodd" clip-rule="evenodd" d="M13.2 30.2c-.12.79-.23.68-.43.49-.17-.17-.42-.4-.78-.11-.27.3-.65 1-.47 1.19 1.04-.2 1.04.97-.02.76-.66.35-1.09.13-1.37-.01-.23-.12-.35-.19-.41.2.08.53.51.62.86.7.33.08.6.13.4.54v.03c-.08.38-.13.66.46.74.62-.03.6.53.56 1.07-.03.59-.06 1.15.8.82 1.41-.1.96.76.48 1.65l-.16.31a15.98 15.98 0 0 1 .97-25.87c.16.03.31.1.46.24a1 1 0 0 1 .13-.62c.35-.21.7-.41 1.07-.6.1.09.13.25.08.52.08.03.17.03.25.03.17 0 .31 0 .26.32-.03.29-.29.35-.53.4-.3.07-.57.14-.35.6l-.08.29c-.19.62-.42 1.38.28 1.78.96-2.51 2.93-1.78 4.01-1.38.62.23.96.35.66-.29-1.93-.66-.92-2.6.82-1.79-.28-.4-.7-.48-1.1-.55-.42-.08-.83-.16-1.05-.6 0-.14.15-.38.33-.64.59-.13 1.19-.24 1.8-.31.17.67.48 1.23.9 1.17.2.04.45.04.7.03.61-.01 1.23-.02 1.2.66.64-.28.73.1.82.46.03.13.06.25.11.34 2.01 1.08 1.45 1.26.84 1.46-.44.14-.9.3-.52.78-.25.39-.67.15-1.1-.09-.48-.26-.97-.53-1.24.04-.11.28.3.6.77.94.56.43 1.2.9 1.09 1.48-.4.59-.03.95.37 1.34.38.37.78.75.57 1.38-.27.72.82 1.07 1.04.24.15-.6.61-.38 1.03-.11-.69-.58-1.13-2.87.19-1.86.08.47.44.69.8.9.4.23.79.45.69 1.06-.65 1.16 1.66 2.47 3.76 3.66 1.37.77 2.64 1.5 2.97 2.1-.14.94.48.65.3-.1.01-.1-.04-.22-.1-.32-.07-.17-.15-.32.07-.4.25-.08.3.12.37.33.03.1.07.21.12.3.17-1.73 1.8 1.16.13 1.46 1.31 1 1.04 2.23.76 3.48-.14.61-.28 1.24-.23 1.85-.26.56-.55 1.11-.88 1.64-.04-.1-.06-.26-.01-.48.01-.28.14-.74.28-1.25.35-1.28.79-2.9-.25-2.79-.18.72-.18 1.5-.18 2.3 0 1.02 0 2.06-.37 3.03-.55.79-1.16 1.52-1.84 2.2-.2-.1-.34-.48-.5-.92-.14-.4-.3-.86-.54-1.2.74.12 1.3-.54 1.7-1.82-.46.15-.78-.12-1.03-.33-.3-.25-.5-.42-.71.38-1.05-.97-2.52-3.04-2.15-4.6.5-1-.03-.89-.7-.75-.39.08-.82.17-1.14.07-1.71-.47-1.53 1.59-1.37 2.7-.23.54.04.89.3 1.23h.01c.14.18.29.37.35.58.27.06.51.03.75 0 .5-.07.95-.13 1.41.63 1.02.36.8 1.05.58 1.76-.21.67-.43 1.37.35 1.85.61.77.09 1.57-.72 1.87.08-1.64.03-1.63-.33-1.54-.24.05-.62.14-1.2-.22.24.88-.56 1.05-1 .57.08-.28.02-.51-.05-.74a1.4 1.4 0 0 1-.08-.57c-.37.5-.78.03-.7-.48-.12-.47.32-.87.7-1.22.45-.42.82-.76-.05-1.04-.32-.38-.57.1-.84.59-.2.36-.39.73-.62.76-.2-.2-.1-.46.02-.73.11-.28.24-.58.05-.86 0-.75-.63-.5-1.16-.29-.47.2-.85.35-.59-.32.88-.7-.05-1.35-.3-.13-.5-.4-.1-1.07.26-1.66.4-.68.75-1.24-.43-1.16-.3.33-.42.2-.58.04-.09-.1-.2-.2-.35-.24-1.53.17-1.7-1.12-1.9-2.48-.16-1.2-.34-2.46-1.44-2.86-.4-.42-.33-.11-.24.24.04.2.1.4.07.52-1.18-.28-1.1.22-1.06.58.06.34.09.55-.98-.14.02.66-.04 3.2-.86 2.07-.44-.65-1.12-.88-1.78-1.1-.7-.23-1.35-.46-1.66-1.15-.74-.7-.45-1.16-.1-1.72.13-.2.26-.4.35-.64-.1-1 .32-.72.79-.4.2.14.4.28.59.34a14.1 14.1 0 0 0-.37-.6c-.42-.67-.5-.8.77-.32-.34-.49-.16-.89.02-1.3.1-.21.2-.43.22-.66.02-.14-.05-.29-.12-.43-.13-.26-.25-.51.14-.74-.3-.36-1.18-.42-1.34.21-.1 1.12-1.35 1-1.47.15.84-.22 1.4-.49 1.16-1.62.74-1.45-3.78.1-3.67.8.05.26.29.28.52.3.23.02.46.03.41.32-.21.21-.5.16-.78.1-.4-.07-.8-.14-.98.56-.4 1.13.53 1.22 1.34 1.3.5.05.95.1.99.39.02.25.2.2.4.14.17-.04.34-.1.46 0-.31.52-1.98 2.3-2.26 2.42.12.26.7.63 1.3 1.01 1.1.7 2.26 1.43.9 1.67-.48.02-.43.22-.38.4.07.23.12.43-1 .17-.01.4.34.41.62.43.31.01.55.03.13.54-.65.94-.2 1.06.26 1.18.42.1.86.22.52.97Zm19.04-10.1c.05.14.11.28.15.43-1.6-.36 3.63 5 3.72-.67.05-.53-.4-1.5-.69-2.02-.5-.03-.9-.43-1.26-.8-.4-.4-.77-.77-1.25-.67-.59.55-2.47 2.43-.84 2.81-.08.32.04.62.17.92Zm-18.65 9.35c.12-.41.23-.79.44-.23.07.26.28.22.57.15.47-.1 1.15-.25 1.74.85-.14.11-.3.21-.45.3-.38.26-.77.5-.96 1-.25.57-1.6.06-1.56-.36.11-.25.02-.45-.06-.62-.07-.18-.14-.33 0-.5.12-.06.2-.33.28-.6Z" fill="#94A3B8" style="mix-blend-mode:multiply" opacity=".6"/><g filter="url(#c)"><ellipse cx="23" cy="19.33" rx="9.33" ry="6.67" fill="url(#d)" style="mix-blend-mode:soft-light"/></g><g filter="url(#e)"><ellipse cx="30.5" cy="19" rx="1.5" ry="2" transform="rotate(-22.2 30.5 19)" fill="#94A3B8"/></g><g filter="url(#f)"><ellipse cx="26.76" cy="25.92" rx="1.88" ry="1.31" transform="rotate(-22.2 26.76 25.92)" fill="#64748B"/></g><g filter="url(#g)"><ellipse cx="17.02" cy="16.88" rx="1.49" ry="1.53" transform="rotate(15.89 17.02 16.88)" fill="#94A3B8"/></g><g filter="url(#h)"><ellipse cx="19.03" cy="38.05" rx="1.56" ry="1.61" transform="rotate(-20.58 19.03 38.05)" fill="#475569"/></g><g filter="url(#i)"><ellipse cx="26.95" cy="33.08" rx="2.4" ry="2" transform="rotate(-20.58 26.95 33.08)" fill="#475569"/></g><g filter="url(#j)"><ellipse cx="16.54" cy="28.6" rx="1.23" ry="1.03" transform="rotate(56.56 16.54 28.6)" fill="#64748B"/></g><g filter="url(#k)"><ellipse cx="11.52" cy="31.4" rx=".59" ry=".49" transform="rotate(-20.58 11.52 31.4)" fill="#94A3B8"/></g><g filter="url(#l)"><ellipse cx="36.73" cy="23.67" rx=".59" ry=".49" transform="rotate(48.18 36.73 23.67)" fill="#94A3B8"/></g><g filter="url(#m)"><ellipse cx="33.76" cy="34.77" rx=".59" ry=".49" transform="rotate(48.18 33.76 34.77)" fill="#64748B"/></g><g filter="url(#n)"><ellipse cx="24.73" cy="14.67" rx=".59" ry=".49" transform="rotate(20.83 24.73 14.67)" fill="#94A3B8"/></g><g filter="url(#o)"><ellipse cx="20.73" cy="22.67" rx=".59" ry=".49" transform="rotate(20.83 20.73 22.67)" fill="#94A3B8"/></g><g filter="url(#p)"><ellipse cx="32.73" cy="27.67" rx=".59" ry=".49" transform="rotate(94.66 32.73 27.67)" fill="#94A3B8"/></g><g filter="url(#q)"><ellipse cx="22.54" cy="30.63" rx=".59" ry=".49" transform="rotate(94.66 22.54 30.63)" fill="#94A3B8"/></g><g filter="url(#r)"><ellipse cx="25.54" cy="39.63" rx=".59" ry=".49" transform="rotate(94.66 25.54 39.63)" fill="#94A3B8"/></g><g filter="url(#s)"><path d="M21.06 51.74c-.92-3.83-3.1-5.42-4.06-5.74h36c-1.55 1.75-3.48 4.2-3.48 5.74 0 1.53.38 4.14 1.16 5.26H19.9c.78-.16 2.1-1.43 1.16-5.26Z" fill="url(#t)"/></g><g filter="url(#u)"><path fill-rule="evenodd" clip-rule="evenodd" d="M53 29.51v-.01a12.5 12.5 0 0 0-24.24-4.3A8.03 8.03 0 0 0 19 33.06 7 7 0 0 0 20 47h30a9 9 0 0 0 3-17.49Z" fill="#64748B"/></g><g filter="url(#v)"><path fill-rule="evenodd" clip-rule="evenodd" d="M59 38a9 9 0 0 1-9 9H20a7 7 0 1 1 6.33-10h14.72A9 9 0 0 1 59 38Z" fill="#F1F5F9"/></g><g filter="url(#w)"><circle cx="20" cy="40" r="5" fill="url(#x)" style="mix-blend-mode:soft-light"/></g><g filter="url(#y)"><circle cx="27" cy="33" r="8" fill="#F1F5F9"/></g><g filter="url(#z)"><ellipse cx="27" cy="32" rx="6" ry="5" fill="url(#A)" style="mix-blend-mode:soft-light"/></g><g filter="url(#B)"><circle cx="51" cy="37" r="5" fill="url(#C)" style="mix-blend-mode:soft-light"/></g><g filter="url(#D)"><circle cx="40.5" cy="29.5" r="12.5" fill="#F1F5F9"/></g><g filter="url(#E)"><ellipse cx="40" cy="24" rx="7" ry="5" fill="url(#F)" style="mix-blend-mode:soft-light"/></g><g filter="url(#G)"><ellipse cx="36" cy="37.5" rx="9" ry="6.5" fill="url(#H)"/></g><g filter="url(#I)"><ellipse cx="36" cy="37.5" rx="7" ry="4.5" fill="url(#J)" style="mix-blend-mode:soft-light"/></g><path fill-rule="evenodd" clip-rule="evenodd" d="M53 29.51v-.01a12.5 12.5 0 0 0-24.24-4.3A8.03 8.03 0 0 0 19 33.06 7 7 0 0 0 20 47h30a9 9 0 0 0 3-17.49Z" fill="#93C5FD" style="mix-blend-mode:color"/><path fill-rule="evenodd" clip-rule="evenodd" d="M53 29.51v-.01a12.5 12.5 0 0 0-24.24-4.3A8.03 8.03 0 0 0 19 33.06 7 7 0 0 0 20 47h30a9 9 0 0 0 3-17.49Z" fill="#3730A3" style="mix-blend-mode:color"/><path fill-rule="evenodd" clip-rule="evenodd" d="M53 29.51v-.01a12.5 12.5 0 0 0-24.24-4.3A8.03 8.03 0 0 0 19 33.06 7 7 0 0 0 20 47h30a9 9 0 0 0 3-17.49Z" fill="#4338CA" fill-opacity=".15" style="mix-blend-mode:multiply"/><g filter="url(#K)"><path d="m28.76 56.94 3.61-5.91c.12-.2.42-.08.37.14l-1.5 6.77a1.35 1.35 0 1 1-2.48-1Z" fill="#3B82F6"/></g><path d="M30.82 58.1a1 1 0 1 1-1.84-.8c.22-.5 2.51-5.02 3.02-4.8.5.22-.96 5.08-1.18 5.6Z" fill="url(#L)"/><g filter="url(#M)"><path d="m35.76 56.94 3.61-5.91c.12-.2.42-.08.37.14l-1.5 6.77a1.35 1.35 0 1 1-2.48-1Z" fill="#3B82F6"/></g><path d="M37.82 58.1a1 1 0 1 1-1.84-.8c.22-.5 2.51-5.02 3.02-4.8.5.22-.96 5.08-1.18 5.6Z" fill="url(#N)"/><defs><filter id="a" x="7" y="9" width="32" height="34" filterUnits="userSpaceOnUse" color-interpolation-filters="sRGB"><feFlood flood-opacity="0" result="BackgroundImageFix"/><feBlend in="SourceGraphic" in2="BackgroundImageFix" result="shape"/><feColorMatrix in="SourceAlpha" values="0 0 0 0 0 0 0 0 0 0 0 0 0 0 0 0 0 0 127 0" result="hardAlpha"/><feMorphology radius="1" in="SourceAlpha" result="effect1_innerShadow_4_34716"/><feOffset dy="-1"/><feGaussianBlur stdDeviation="3"/><feComposite in2="hardAlpha" operator="arithmetic" k2="-1" k3="1"/><feColorMatrix values="0 0 0 0 0.278431 0 0 0 0 0.333333 0 0 0 0 0.411765 0 0 0 1 0"/><feBlend in2="shape" result="effect1_innerShadow_4_34716"/><feColorMatrix in="SourceAlpha" values="0 0 0 0 0 0 0 0 0 0 0 0 0 0 0 0 0 0 127 0" result="hardAlpha"/><feOffset dy="1"/><feGaussianBlur stdDeviation="1"/><feComposite in2="hardAlpha" operator="arithmetic" k2="-1" k3="1"/><feColorMatrix values="0 0 0 0 0.796078 0 0 0 0 0.835294 0 0 0 0 0.882353 0 0 0 1 0"/><feBlend in2="effect1_innerShadow_4_34716" result="effect2_innerShadow_4_34716"/></filter><filter id="c" x="11" y="10" width="24" height="18.67" filterUnits="userSpaceOnUse" color-interpolation-filters="sRGB"><feFlood flood-opacity="0" result="BackgroundImageFix"/><feBlend in="SourceGraphic" in2="BackgroundImageFix" result="shape"/><feGaussianBlur stdDeviation="1.33" result="effect1_foregroundBlur_4_34716"/></filter><filter id="e" x="28.42" y="17.06" width="4.16" height="4.87" filterUnits="userSpaceOnUse" color-interpolation-filters="sRGB"><feFlood flood-opacity="0" result="BackgroundImageFix"/><feColorMatrix in="SourceAlpha" values="0 0 0 0 0 0 0 0 0 0 0 0 0 0 0 0 0 0 127 0" result="hardAlpha"/><feOffset dy=".5"/><feGaussianBlur stdDeviation=".25"/><feComposite in2="hardAlpha" operator="out"/><feColorMatrix values="0 0 0 0 0.886275 0 0 0 0 0.909804 0 0 0 0 0.941176 0 0 0 0.7 0"/><feBlend in2="BackgroundImageFix" result="effect1_dropShadow_4_34716"/><feBlend in="SourceGraphic" in2="effect1_dropShadow_4_34716" result="shape"/><feColorMatrix in="SourceAlpha" values="0 0 0 0 0 0 0 0 0 0 0 0 0 0 0 0 0 0 127 0" result="hardAlpha"/><feOffset dy=".5"/><feGaussianBlur stdDeviation=".5"/><feComposite in2="hardAlpha" operator="arithmetic" k2="-1" k3="1"/><feColorMatrix values="0 0 0 0 0.392157 0 0 0 0 0.454902 0 0 0 0 0.545098 0 0 0 1 0"/><feBlend in2="shape" result="effect2_innerShadow_4_34716"/></filter><filter id="f" x="24.45" y="24.52" width="4.61" height="3.8" filterUnits="userSpaceOnUse" color-interpolation-filters="sRGB"><feFlood flood-opacity="0" result="BackgroundImageFix"/><feColorMatrix in="SourceAlpha" values="0 0 0 0 0 0 0 0 0 0 0 0 0 0 0 0 0 0 127 0" result="hardAlpha"/><feOffset dy=".5"/><feGaussianBlur stdDeviation=".25"/><feComposite in2="hardAlpha" operator="out"/><feColorMatrix values="0 0 0 0 0.886275 0 0 0 0 0.909804 0 0 0 0 0.941176 0 0 0 0.7 0"/><feBlend in2="BackgroundImageFix" result="effect1_dropShadow_4_34716"/><feBlend in="SourceGraphic" in2="effect1_dropShadow_4_34716" result="shape"/><feColorMatrix in="SourceAlpha" values="0 0 0 0 0 0 0 0 0 0 0 0 0 0 0 0 0 0 127 0" result="hardAlpha"/><feOffset dy=".5"/><feGaussianBlur stdDeviation=".5"/><feComposite in2="hardAlpha" operator="arithmetic" k2="-1" k3="1"/><feColorMatrix values="0 0 0 0 0.392157 0 0 0 0 0.454902 0 0 0 0 0.545098 0 0 0 1 0"/><feBlend in2="shape" result="effect2_innerShadow_4_34716"/></filter><filter id="g" x="15.02" y="15.35" width="3.99" height="4.05" filterUnits="userSpaceOnUse" color-interpolation-filters="sRGB"><feFlood flood-opacity="0" result="BackgroundImageFix"/><feColorMatrix in="SourceAlpha" values="0 0 0 0 0 0 0 0 0 0 0 0 0 0 0 0 0 0 127 0" result="hardAlpha"/><feOffset dy=".5"/><feGaussianBlur stdDeviation=".25"/><feComposite in2="hardAlpha" operator="out"/><feColorMatrix values="0 0 0 0 0.886275 0 0 0 0 0.909804 0 0 0 0 0.941176 0 0 0 0.7 0"/><feBlend in2="BackgroundImageFix" result="effect1_dropShadow_4_34716"/><feBlend in="SourceGraphic" in2="effect1_dropShadow_4_34716" result="shape"/><feColorMatrix in="SourceAlpha" values="0 0 0 0 0 0 0 0 0 0 0 0 0 0 0 0 0 0 127 0" result="hardAlpha"/><feOffset dy=".5"/><feGaussianBlur stdDeviation=".5"/><feComposite in2="hardAlpha" operator="arithmetic" k2="-1" k3="1"/><feColorMatrix values="0 0 0 0 0.392157 0 0 0 0 0.454902 0 0 0 0 0.545098 0 0 0 1 0"/><feBlend in2="shape" result="effect2_innerShadow_4_34716"/></filter><filter id="h" x="16.96" y="36.45" width="4.14" height="4.2" filterUnits="userSpaceOnUse" color-interpolation-filters="sRGB"><feFlood flood-opacity="0" result="BackgroundImageFix"/><feColorMatrix in="SourceAlpha" values="0 0 0 0 0 0 0 0 0 0 0 0 0 0 0 0 0 0 127 0" result="hardAlpha"/><feOffset dy=".5"/><feGaussianBlur stdDeviation=".25"/><feComposite in2="hardAlpha" operator="out"/><feColorMatrix values="0 0 0 0 0.886275 0 0 0 0 0.909804 0 0 0 0 0.941176 0 0 0 0.15 0"/><feBlend in2="BackgroundImageFix" result="effect1_dropShadow_4_34716"/><feBlend in="SourceGraphic" in2="effect1_dropShadow_4_34716" result="shape"/><feColorMatrix in="SourceAlpha" values="0 0 0 0 0 0 0 0 0 0 0 0 0 0 0 0 0 0 127 0" result="hardAlpha"/><feOffset dy=".5"/><feGaussianBlur stdDeviation=".5"/><feComposite in2="hardAlpha" operator="arithmetic" k2="-1" k3="1"/><feColorMatrix values="0 0 0 0 0.392157 0 0 0 0 0.454902 0 0 0 0 0.545098 0 0 0 1 0"/><feBlend in2="shape" result="effect2_innerShadow_4_34716"/></filter><filter id="i" x="24.1" y="31.03" width="5.71" height="5.11" filterUnits="userSpaceOnUse" color-interpolation-filters="sRGB"><feFlood flood-opacity="0" result="BackgroundImageFix"/><feColorMatrix in="SourceAlpha" values="0 0 0 0 0 0 0 0 0 0 0 0 0 0 0 0 0 0 127 0" result="hardAlpha"/><feOffset dy=".5"/><feGaussianBlur stdDeviation=".25"/><feComposite in2="hardAlpha" operator="out"/><feColorMatrix values="0 0 0 0 0.886275 0 0 0 0 0.909804 0 0 0 0 0.941176 0 0 0 0.3 0"/><feBlend in2="BackgroundImageFix" result="effect1_dropShadow_4_34716"/><feBlend in="SourceGraphic" in2="effect1_dropShadow_4_34716" result="shape"/><feColorMatrix in="SourceAlpha" values="0 0 0 0 0 0 0 0 0 0 0 0 0 0 0 0 0 0 127 0" result="hardAlpha"/><feOffset dy=".5"/><feGaussianBlur stdDeviation=".5"/><feComposite in2="hardAlpha" operator="arithmetic" k2="-1" k3="1"/><feColorMatrix values="0 0 0 0 0.392157 0 0 0 0 0.454902 0 0 0 0 0.545098 0 0 0 1 0"/><feBlend in2="shape" result="effect2_innerShadow_4_34716"/></filter><filter id="j" x="14.94" y="27.42" width="3.19" height="3.35" filterUnits="userSpaceOnUse" color-interpolation-filters="sRGB"><feFlood flood-opacity="0" result="BackgroundImageFix"/><feColorMatrix in="SourceAlpha" values="0 0 0 0 0 0 0 0 0 0 0 0 0 0 0 0 0 0 127 0" result="hardAlpha"/><feOffset dy=".5"/><feGaussianBlur stdDeviation=".25"/><feComposite in2="hardAlpha" operator="out"/><feColorMatrix values="0 0 0 0 0.886275 0 0 0 0 0.909804 0 0 0 0 0.941176 0 0 0 0.7 0"/><feBlend in2="BackgroundImageFix" result="effect1_dropShadow_4_34716"/><feBlend in="SourceGraphic" in2="effect1_dropShadow_4_34716" result="shape"/><feColorMatrix in="SourceAlpha" values="0 0 0 0 0 0 0 0 0 0 0 0 0 0 0 0 0 0 127 0" result="hardAlpha"/><feOffset dy=".5"/><feGaussianBlur stdDeviation=".5"/><feComposite in2="hardAlpha" operator="arithmetic" k2="-1" k3="1"/><feColorMatrix values="0 0 0 0 0.392157 0 0 0 0 0.454902 0 0 0 0 0.545098 0 0 0 1 0"/><feBlend in2="shape" result="effect2_innerShadow_4_34716"/></filter><filter id="k" x="10.43" y="30.89" width="2.16" height="2.01" filterUnits="userSpaceOnUse" color-interpolation-filters="sRGB"><feFlood flood-opacity="0" result="BackgroundImageFix"/><feColorMatrix in="SourceAlpha" values="0 0 0 0 0 0 0 0 0 0 0 0 0 0 0 0 0 0 127 0" result="hardAlpha"/><feOffset dy=".5"/><feGaussianBlur stdDeviation=".25"/><feComposite in2="hardAlpha" operator="out"/><feColorMatrix values="0 0 0 0 0.886275 0 0 0 0 0.909804 0 0 0 0 0.941176 0 0 0 0.2 0"/><feBlend in2="BackgroundImageFix" result="effect1_dropShadow_4_34716"/><feBlend in="SourceGraphic" in2="effect1_dropShadow_4_34716" result="shape"/><feColorMatrix in="SourceAlpha" values="0 0 0 0 0 0 0 0 0 0 0 0 0 0 0 0 0 0 127 0" result="hardAlpha"/><feOffset dy=".5"/><feGaussianBlur stdDeviation=".5"/><feComposite in2="hardAlpha" operator="arithmetic" k2="-1" k3="1"/><feColorMatrix values="0 0 0 0 0.392157 0 0 0 0 0.454902 0 0 0 0 0.545098 0 0 0 1 0"/><feBlend in2="shape" result="effect2_innerShadow_4_34716"/></filter><filter id="l" x="35.69" y="23.12" width="2.08" height="2.1" filterUnits="userSpaceOnUse" color-interpolation-filters="sRGB"><feFlood flood-opacity="0" result="BackgroundImageFix"/><feColorMatrix in="SourceAlpha" values="0 0 0 0 0 0 0 0 0 0 0 0 0 0 0 0 0 0 127 0" result="hardAlpha"/><feOffset dy=".5"/><feGaussianBlur stdDeviation=".25"/><feComposite in2="hardAlpha" operator="out"/><feColorMatrix values="0 0 0 0 0.886275 0 0 0 0 0.909804 0 0 0 0 0.941176 0 0 0 0.2 0"/><feBlend in2="BackgroundImageFix" result="effect1_dropShadow_4_34716"/><feBlend in="SourceGraphic" in2="effect1_dropShadow_4_34716" result="shape"/><feColorMatrix in="SourceAlpha" values="0 0 0 0 0 0 0 0 0 0 0 0 0 0 0 0 0 0 127 0" result="hardAlpha"/><feOffset dy=".5"/><feGaussianBlur stdDeviation=".5"/><feComposite in2="hardAlpha" operator="arithmetic" k2="-1" k3="1"/><feColorMatrix values="0 0 0 0 0.392157 0 0 0 0 0.454902 0 0 0 0 0.545098 0 0 0 1 0"/><feBlend in2="shape" result="effect2_innerShadow_4_34716"/></filter><filter id="m" x="32.72" y="34.22" width="2.08" height="2.1" filterUnits="userSpaceOnUse" color-interpolation-filters="sRGB"><feFlood flood-opacity="0" result="BackgroundImageFix"/><feColorMatrix in="SourceAlpha" values="0 0 0 0 0 0 0 0 0 0 0 0 0 0 0 0 0 0 127 0" result="hardAlpha"/><feOffset dy=".5"/><feGaussianBlur stdDeviation=".25"/><feComposite in2="hardAlpha" operator="out"/><feColorMatrix values="0 0 0 0 0.886275 0 0 0 0 0.909804 0 0 0 0 0.941176 0 0 0 0.2 0"/><feBlend in2="BackgroundImageFix" result="effect1_dropShadow_4_34716"/><feBlend in="SourceGraphic" in2="effect1_dropShadow_4_34716" result="shape"/><feColorMatrix in="SourceAlpha" values="0 0 0 0 0 0 0 0 0 0 0 0 0 0 0 0 0 0 127 0" result="hardAlpha"/><feOffset dy=".5"/><feGaussianBlur stdDeviation=".5"/><feComposite in2="hardAlpha" operator="arithmetic" k2="-1" k3="1"/><feColorMatrix values="0 0 0 0 0.392157 0 0 0 0 0.454902 0 0 0 0 0.545098 0 0 0 1 0"/><feBlend in2="shape" result="effect2_innerShadow_4_34716"/></filter><filter id="n" x="23.65" y="14.16" width="2.16" height="2.01" filterUnits="userSpaceOnUse" color-interpolation-filters="sRGB"><feFlood flood-opacity="0" result="BackgroundImageFix"/><feColorMatrix in="SourceAlpha" values="0 0 0 0 0 0 0 0 0 0 0 0 0 0 0 0 0 0 127 0" result="hardAlpha"/><feOffset dy=".5"/><feGaussianBlur stdDeviation=".25"/><feComposite in2="hardAlpha" operator="out"/><feColorMatrix values="0 0 0 0 0.886275 0 0 0 0 0.909804 0 0 0 0 0.941176 0 0 0 0.7 0"/><feBlend in2="BackgroundImageFix" result="effect1_dropShadow_4_34716"/><feBlend in="SourceGraphic" in2="effect1_dropShadow_4_34716" result="shape"/><feColorMatrix in="SourceAlpha" values="0 0 0 0 0 0 0 0 0 0 0 0 0 0 0 0 0 0 127 0" result="hardAlpha"/><feOffset dy=".5"/><feGaussianBlur stdDeviation=".5"/><feComposite in2="hardAlpha" operator="arithmetic" k2="-1" k3="1"/><feColorMatrix values="0 0 0 0 0.392157 0 0 0 0 0.454902 0 0 0 0 0.545098 0 0 0 1 0"/><feBlend in2="shape" result="effect2_innerShadow_4_34716"/></filter><filter id="o" x="19.65" y="22.16" width="2.16" height="2.01" filterUnits="userSpaceOnUse" color-interpolation-filters="sRGB"><feFlood flood-opacity="0" result="BackgroundImageFix"/><feColorMatrix in="SourceAlpha" values="0 0 0 0 0 0 0 0 0 0 0 0 0 0 0 0 0 0 127 0" result="hardAlpha"/><feOffset dy=".5"/><feGaussianBlur stdDeviation=".25"/><feComposite in2="hardAlpha" operator="out"/><feColorMatrix values="0 0 0 0 0.886275 0 0 0 0 0.909804 0 0 0 0 0.941176 0 0 0 0.7 0"/><feBlend in2="BackgroundImageFix" result="effect1_dropShadow_4_34716"/><feBlend in="SourceGraphic" in2="effect1_dropShadow_4_34716" result="shape"/><feColorMatrix in="SourceAlpha" values="0 0 0 0 0 0 0 0 0 0 0 0 0 0 0 0 0 0 127 0" result="hardAlpha"/><feOffset dy=".5"/><feGaussianBlur stdDeviation=".5"/><feComposite in2="hardAlpha" operator="arithmetic" k2="-1" k3="1"/><feColorMatrix values="0 0 0 0 0.392157 0 0 0 0 0.454902 0 0 0 0 0.545098 0 0 0 1 0"/><feBlend in2="shape" result="effect2_innerShadow_4_34716"/></filter><filter id="p" x="31.73" y="27.08" width="1.99" height="2.18" filterUnits="userSpaceOnUse" color-interpolation-filters="sRGB"><feFlood flood-opacity="0" result="BackgroundImageFix"/><feColorMatrix in="SourceAlpha" values="0 0 0 0 0 0 0 0 0 0 0 0 0 0 0 0 0 0 127 0" result="hardAlpha"/><feOffset dy=".5"/><feGaussianBlur stdDeviation=".25"/><feComposite in2="hardAlpha" operator="out"/><feColorMatrix values="0 0 0 0 0.886275 0 0 0 0 0.909804 0 0 0 0 0.941176 0 0 0 0.4 0"/><feBlend in2="BackgroundImageFix" result="effect1_dropShadow_4_34716"/><feBlend in="SourceGraphic" in2="effect1_dropShadow_4_34716" result="shape"/><feColorMatrix in="SourceAlpha" values="0 0 0 0 0 0 0 0 0 0 0 0 0 0 0 0 0 0 127 0" result="hardAlpha"/><feOffset dy=".5"/><feGaussianBlur stdDeviation=".5"/><feComposite in2="hardAlpha" operator="arithmetic" k2="-1" k3="1"/><feColorMatrix values="0 0 0 0 0.392157 0 0 0 0 0.454902 0 0 0 0 0.545098 0 0 0 1 0"/><feBlend in2="shape" result="effect2_innerShadow_4_34716"/></filter><filter id="q" x="21.55" y="30.04" width="1.99" height="2.18" filterUnits="userSpaceOnUse" color-interpolation-filters="sRGB"><feFlood flood-opacity="0" result="BackgroundImageFix"/><feColorMatrix in="SourceAlpha" values="0 0 0 0 0 0 0 0 0 0 0 0 0 0 0 0 0 0 127 0" result="hardAlpha"/><feOffset dy=".5"/><feGaussianBlur stdDeviation=".25"/><feComposite in2="hardAlpha" operator="out"/><feColorMatrix values="0 0 0 0 0.886275 0 0 0 0 0.909804 0 0 0 0 0.941176 0 0 0 0.4 0"/><feBlend in2="BackgroundImageFix" result="effect1_dropShadow_4_34716"/><feBlend in="SourceGraphic" in2="effect1_dropShadow_4_34716" result="shape"/><feColorMatrix in="SourceAlpha" values="0 0 0 0 0 0 0 0 0 0 0 0 0 0 0 0 0 0 127 0" result="hardAlpha"/><feOffset dy=".5"/><feGaussianBlur stdDeviation=".5"/><feComposite in2="hardAlpha" operator="arithmetic" k2="-1" k3="1"/><feColorMatrix values="0 0 0 0 0.392157 0 0 0 0 0.454902 0 0 0 0 0.545098 0 0 0 1 0"/><feBlend in2="shape" result="effect2_innerShadow_4_34716"/></filter><filter id="r" x="24.55" y="39.04" width="1.99" height="2.18" filterUnits="userSpaceOnUse" color-interpolation-filters="sRGB"><feFlood flood-opacity="0" result="BackgroundImageFix"/><feColorMatrix in="SourceAlpha" values="0 0 0 0 0 0 0 0 0 0 0 0 0 0 0 0 0 0 127 0" result="hardAlpha"/><feOffset dy=".5"/><feGaussianBlur stdDeviation=".25"/><feComposite in2="hardAlpha" operator="out"/><feColorMatrix values="0 0 0 0 0.886275 0 0 0 0 0.909804 0 0 0 0 0.941176 0 0 0 0.2 0"/><feBlend in2="BackgroundImageFix" result="effect1_dropShadow_4_34716"/><feBlend in="SourceGraphic" in2="effect1_dropShadow_4_34716" result="shape"/><feColorMatrix in="SourceAlpha" values="0 0 0 0 0 0 0 0 0 0 0 0 0 0 0 0 0 0 127 0" result="hardAlpha"/><feOffset dy=".5"/><feGaussianBlur stdDeviation=".5"/><feComposite in2="hardAlpha" operator="arithmetic" k2="-1" k3="1"/><feColorMatrix values="0 0 0 0 0.392157 0 0 0 0 0.454902 0 0 0 0 0.545098 0 0 0 1 0"/><feBlend in2="shape" result="effect2_innerShadow_4_34716"/></filter><filter id="s" x="15" y="44" width="40" height="15" filterUnits="userSpaceOnUse" color-interpolation-filters="sRGB"><feFlood flood-opacity="0" result="BackgroundImageFix"/><feBlend in="SourceGraphic" in2="BackgroundImageFix" result="shape"/><feGaussianBlur stdDeviation="1" result="effect1_foregroundBlur_4_34716"/></filter><filter id="u" x="9" y="15" width="54" height="38" filterUnits="userSpaceOnUse" color-interpolation-filters="sRGB"><feFlood flood-opacity="0" result="BackgroundImageFix"/><feColorMatrix in="SourceAlpha" values="0 0 0 0 0 0 0 0 0 0 0 0 0 0 0 0 0 0 127 0" result="hardAlpha"/><feOffset dy="2"/><feGaussianBlur stdDeviation="2"/><feComposite in2="hardAlpha" operator="out"/><feColorMatrix values="0 0 0 0 0.278431 0 0 0 0 0.333333 0 0 0 0 0.411765 0 0 0 0.4 0"/><feBlend in2="BackgroundImageFix" result="effect1_dropShadow_4_34716"/><feBlend in="SourceGraphic" in2="effect1_dropShadow_4_34716" result="shape"/></filter><filter id="v" x="13" y="27" width="46" height="22" filterUnits="userSpaceOnUse" color-interpolation-filters="sRGB"><feFlood flood-opacity="0" result="BackgroundImageFix"/><feBlend in="SourceGraphic" in2="BackgroundImageFix" result="shape"/><feColorMatrix in="SourceAlpha" values="0 0 0 0 0 0 0 0 0 0 0 0 0 0 0 0 0 0 127 0" result="hardAlpha"/><feOffset dy="2"/><feGaussianBlur stdDeviation="1"/><feComposite in2="hardAlpha" operator="arithmetic" k2="-1" k3="1"/><feColorMatrix values="0 0 0 0 0.796078 0 0 0 0 0.835294 0 0 0 0 0.882353 0 0 0 1 0"/><feBlend in2="shape" result="effect1_innerShadow_4_34716"/><feColorMatrix in="SourceAlpha" values="0 0 0 0 0 0 0 0 0 0 0 0 0 0 0 0 0 0 127 0" result="hardAlpha"/><feOffset dy="-2"/><feGaussianBlur stdDeviation="1"/><feComposite in2="hardAlpha" operator="arithmetic" k2="-1" k3="1"/><feColorMatrix values="0 0 0 0 0.796078 0 0 0 0 0.835294 0 0 0 0 0.882353 0 0 0 0.6 0"/><feBlend in2="effect1_innerShadow_4_34716" result="effect2_innerShadow_4_34716"/></filter><filter id="w" x="13" y="33" width="14" height="14" filterUnits="userSpaceOnUse" color-interpolation-filters="sRGB"><feFlood flood-opacity="0" result="BackgroundImageFix"/><feBlend in="SourceGraphic" in2="BackgroundImageFix" result="shape"/><feGaussianBlur stdDeviation="1" result="effect1_foregroundBlur_4_34716"/></filter><filter id="y" x="19" y="25" width="16" height="18" filterUnits="userSpaceOnUse" color-interpolation-filters="sRGB"><feFlood flood-opacity="0" result="BackgroundImageFix"/><feBlend in="SourceGraphic" in2="BackgroundImageFix" result="shape"/><feColorMatrix in="SourceAlpha" values="0 0 0 0 0 0 0 0 0 0 0 0 0 0 0 0 0 0 127 0" result="hardAlpha"/><feOffset dy="2"/><feGaussianBlur stdDeviation="1"/><feComposite in2="hardAlpha" operator="arithmetic" k2="-1" k3="1"/><feColorMatrix values="0 0 0 0 0.796078 0 0 0 0 0.835294 0 0 0 0 0.882353 0 0 0 1 0"/><feBlend in2="shape" result="effect1_innerShadow_4_34716"/></filter><filter id="z" x="19" y="25" width="16" height="14" filterUnits="userSpaceOnUse" color-interpolation-filters="sRGB"><feFlood flood-opacity="0" result="BackgroundImageFix"/><feBlend in="SourceGraphic" in2="BackgroundImageFix" result="shape"/><feGaussianBlur stdDeviation="1" result="effect1_foregroundBlur_4_34716"/></filter><filter id="B" x="44" y="30" width="14" height="14" filterUnits="userSpaceOnUse" color-interpolation-filters="sRGB"><feFlood flood-opacity="0" result="BackgroundImageFix"/><feBlend in="SourceGraphic" in2="BackgroundImageFix" result="shape"/><feGaussianBlur stdDeviation="1" result="effect1_foregroundBlur_4_34716"/></filter><filter id="D" x="28" y="17" width="25" height="27" filterUnits="userSpaceOnUse" color-interpolation-filters="sRGB"><feFlood flood-opacity="0" result="BackgroundImageFix"/><feBlend in="SourceGraphic" in2="BackgroundImageFix" result="shape"/><feColorMatrix in="SourceAlpha" values="0 0 0 0 0 0 0 0 0 0 0 0 0 0 0 0 0 0 127 0" result="hardAlpha"/><feOffset dy="2"/><feGaussianBlur stdDeviation="1"/><feComposite in2="hardAlpha" operator="arithmetic" k2="-1" k3="1"/><feColorMatrix values="0 0 0 0 0.796078 0 0 0 0 0.835294 0 0 0 0 0.882353 0 0 0 1 0"/><feBlend in2="shape" result="effect1_innerShadow_4_34716"/></filter><filter id="E" x="31" y="17" width="18" height="14" filterUnits="userSpaceOnUse" color-interpolation-filters="sRGB"><feFlood flood-opacity="0" result="BackgroundImageFix"/><feBlend in="SourceGraphic" in2="BackgroundImageFix" result="shape"/><feGaussianBlur stdDeviation="1" result="effect1_foregroundBlur_4_34716"/></filter><filter id="G" x="27" y="31" width="18" height="15" filterUnits="userSpaceOnUse" color-interpolation-filters="sRGB"><feFlood flood-opacity="0" result="BackgroundImageFix"/><feBlend in="SourceGraphic" in2="BackgroundImageFix" result="shape"/><feColorMatrix in="SourceAlpha" values="0 0 0 0 0 0 0 0 0 0 0 0 0 0 0 0 0 0 127 0" result="hardAlpha"/><feOffset dy="2"/><feGaussianBlur stdDeviation="1"/><feComposite in2="hardAlpha" operator="arithmetic" k2="-1" k3="1"/><feColorMatrix values="0 0 0 0 0.796078 0 0 0 0 0.835294 0 0 0 0 0.882353 0 0 0 0.6 0"/><feBlend in2="shape" result="effect1_innerShadow_4_34716"/></filter><filter id="I" x="27" y="31" width="18" height="13" filterUnits="userSpaceOnUse" color-interpolation-filters="sRGB"><feFlood flood-opacity="0" result="BackgroundImageFix"/><feBlend in="SourceGraphic" in2="BackgroundImageFix" result="shape"/><feGaussianBlur stdDeviation="1" result="effect1_foregroundBlur_4_34716"/></filter><filter id="K" x="28.56" y="50.43" width="4.19" height="8.57" filterUnits="userSpaceOnUse" color-interpolation-filters="sRGB"><feFlood flood-opacity="0" result="BackgroundImageFix"/><feBlend in="SourceGraphic" in2="BackgroundImageFix" result="shape"/><feColorMatrix in="SourceAlpha" values="0 0 0 0 0 0 0 0 0 0 0 0 0 0 0 0 0 0 127 0" result="hardAlpha"/><feOffset dy="-1"/><feComposite in2="hardAlpha" operator="arithmetic" k2="-1" k3="1"/><feColorMatrix values="0 0 0 0 0.231373 0 0 0 0 0.509804 0 0 0 0 0.964706 0 0 0 1 0"/><feBlend in2="shape" result="effect1_innerShadow_4_34716"/><feColorMatrix in="SourceAlpha" values="0 0 0 0 0 0 0 0 0 0 0 0 0 0 0 0 0 0 127 0" result="hardAlpha"/><feOffset dy="-.5"/><feGaussianBlur stdDeviation=".25"/><feComposite in2="hardAlpha" operator="arithmetic" k2="-1" k3="1"/><feColorMatrix values="0 0 0 0 0.113438 0 0 0 0 0.33625 0 0 0 0 0.825 0 0 0 1 0"/><feBlend in2="effect1_innerShadow_4_34716" result="effect2_innerShadow_4_34716"/></filter><filter id="M" x="35.56" y="50.43" width="4.19" height="8.57" filterUnits="userSpaceOnUse" color-interpolation-filters="sRGB"><feFlood flood-opacity="0" result="BackgroundImageFix"/><feBlend in="SourceGraphic" in2="BackgroundImageFix" result="shape"/><feColorMatrix in="SourceAlpha" values="0 0 0 0 0 0 0 0 0 0 0 0 0 0 0 0 0 0 127 0" result="hardAlpha"/><feOffset dy="-1"/><feComposite in2="hardAlpha" operator="arithmetic" k2="-1" k3="1"/><feColorMatrix values="0 0 0 0 0.231373 0 0 0 0 0.509804 0 0 0 0 0.964706 0 0 0 1 0"/><feBlend in2="shape" result="effect1_innerShadow_4_34716"/><feColorMatrix in="SourceAlpha" values="0 0 0 0 0 0 0 0 0 0 0 0 0 0 0 0 0 0 127 0" result="hardAlpha"/><feOffset dy="-.5"/><feGaussianBlur stdDeviation=".25"/><feComposite in2="hardAlpha" operator="arithmetic" k2="-1" k3="1"/><feColorMatrix values="0 0 0 0 0.113438 0 0 0 0 0.33625 0 0 0 0 0.825 0 0 0 1 0"/><feBlend in2="effect1_innerShadow_4_34716" result="effect2_innerShadow_4_34716"/></filter><linearGradient id="b" x1="23" y1="10" x2="23" y2="42" gradientUnits="userSpaceOnUse"><stop stop-color="#E2E8F0"/><stop offset="1" stop-color="#64748B"/></linearGradient><linearGradient id="d" x1="23" y1="12.67" x2="23" y2="26" gradientUnits="userSpaceOnUse"><stop stop-color="#F1F5F9"/><stop offset="1" stop-color="#E2E8F0" stop-opacity="0"/></linearGradient><linearGradient id="t" x1="35" y1="46" x2="35" y2="57" gradientUnits="userSpaceOnUse"><stop stop-color="#A5B4FC"/><stop offset="1" stop-color="#818CF8" stop-opacity="0"/></linearGradient><linearGradient id="x" x1="20" y1="35" x2="20" y2="45" gradientUnits="userSpaceOnUse"><stop stop-color="#fff"/><stop offset="1" stop-color="#F3F3F3" stop-opacity=".2"/></linearGradient><linearGradient id="A" x1="27" y1="27" x2="27" y2="37" gradientUnits="userSpaceOnUse"><stop stop-color="#fff"/><stop offset="1" stop-color="#F3F3F3" stop-opacity=".2"/></linearGradient><linearGradient id="C" x1="51" y1="32" x2="51" y2="42" gradientUnits="userSpaceOnUse"><stop stop-color="#fff"/><stop offset="1" stop-color="#F3F3F3" stop-opacity=".2"/></linearGradient><linearGradient id="F" x1="40" y1="19" x2="40" y2="29" gradientUnits="userSpaceOnUse"><stop stop-color="#fff"/><stop offset="1" stop-color="#F3F3F3" stop-opacity=".2"/></linearGradient><linearGradient id="H" x1="36" y1="31" x2="36" y2="44" gradientUnits="userSpaceOnUse"><stop stop-color="#F1F5F9"/><stop offset=".65" stop-color="#F1F5F9" stop-opacity="0"/></linearGradient><linearGradient id="J" x1="36" y1="33" x2="36" y2="42" gradientUnits="userSpaceOnUse"><stop stop-color="#fff"/><stop offset="1" stop-color="#F3F3F3" stop-opacity=".2"/></linearGradient><radialGradient id="L" cx="0" cy="0" r="1" gradientUnits="userSpaceOnUse" gradientTransform="matrix(2 -5 5 2 29.5 58.5)"><stop stop-color="#74D5FF"/><stop offset=".38" stop-color="#74D5FF" stop-opacity="0"/></radialGradient><radialGradient id="N" cx="0" cy="0" r="1" gradientUnits="userSpaceOnUse" gradientTransform="matrix(2 -5 5 2 36.5 58.5)"><stop stop-color="#74D5FF"/><stop offset=".38" stop-color="#74D5FF" stop-opacity="0"/></radialGradient></defs></svg>